<svg width="49" height="49" viewBox="0 0 49 49" fill="none" xmlns="http://www.w3.org/2000/svg">
<path d="M46.832 47.344L44.702 45.644C43.1093 44.3787 41.3411 43.3517 39.453 42.595V40.968C40.766 40.7776 41.9668 40.1213 42.8359 39.1189C43.7051 38.1164 44.1846 36.8348 44.187 35.508V27.617C44.187 27.4077 44.1039 27.2071 43.9559 27.0591C43.8079 26.9111 43.6073 26.828 43.398 26.828C42.6624 26.8278 41.9343 26.9751 41.2567 27.2613C40.5791 27.5474 39.9658 27.9666 39.453 28.494V25.188C40.766 24.9976 41.9668 24.3413 42.8359 23.3389C43.7051 22.3364 44.1846 21.0548 44.187 19.728V14.993C44.1875 14.8892 44.1676 14.7864 44.1283 14.6903C44.089 14.5942 44.0311 14.5069 43.958 14.4332C43.8849 14.3595 43.798 14.301 43.7022 14.261C43.6065 14.221 43.5038 14.2003 43.4 14.2C42.6645 14.1997 41.9364 14.3468 41.2588 14.6328C40.5812 14.9188 39.9678 15.3378 39.455 15.865V12.563C40.7684 12.3723 41.9693 11.7155 42.8383 10.7124C43.7073 9.70938 44.1864 8.42714 44.188 7.1V5.523C44.188 5.41939 44.1676 5.31679 44.1279 5.22106C44.0883 5.12534 44.0302 5.03836 43.9569 4.96509C43.8836 4.89183 43.7967 4.83371 43.7009 4.79406C43.6052 4.75441 43.5026 4.734 43.399 4.734C42.4444 4.73533 41.5065 4.98414 40.6768 5.45613C39.8471 5.92812 39.154 6.60717 38.665 7.427C38.176 6.60703 37.4826 5.92788 36.6527 5.45588C35.8228 4.98388 34.8847 4.73516 33.93 4.734C33.7207 4.734 33.5201 4.81713 33.3721 4.96509C33.2241 5.11306 33.141 5.31374 33.141 5.523V7.1C33.1434 8.42677 33.6229 9.70842 34.4921 10.7109C35.3612 11.7133 36.562 12.3696 37.875 12.56V15.866C37.3622 15.3386 36.7489 14.9194 36.0713 14.6333C35.3937 14.3471 34.6656 14.1998 33.93 14.2C33.7207 14.2 33.5201 14.2831 33.3721 14.4311C33.2241 14.5791 33.141 14.7797 33.141 14.989V19.723C33.1434 21.0498 33.6229 22.3314 34.4921 23.3339C35.3612 24.3363 36.562 24.9926 37.875 25.183V28.489C37.3622 27.9618 36.7488 27.5428 36.0712 27.2568C35.3936 26.9708 34.6655 26.8237 33.93 26.824C33.7207 26.824 33.5201 26.9071 33.3721 27.0551C33.2241 27.2031 33.141 27.4037 33.141 27.613V35.504C33.1434 36.8308 33.6229 38.1124 34.4921 39.1149C35.3612 40.1173 36.562 40.7736 37.875 40.964V42.02C34.6943 40.9954 31.312 40.76 28.02 41.334C27.1037 41.1817 26.1784 41.0905 25.25 41.061V36.234C26.563 36.0436 27.7638 35.3873 28.6329 34.3849C29.5021 33.3824 29.9816 32.1008 29.984 30.774V22.883C29.984 22.7794 29.9636 22.6768 29.9239 22.5811C29.8843 22.4853 29.8262 22.3984 29.7529 22.3251C29.6796 22.2518 29.5927 22.1937 29.4969 22.1541C29.4012 22.1144 29.2986 22.094 29.195 22.094C28.4595 22.0937 27.7314 22.2408 27.0538 22.5268C26.3762 22.8128 25.7628 23.2318 25.25 23.759V20.453C26.563 20.2626 27.7638 19.6063 28.6329 18.6039C29.5021 17.6014 29.9816 16.3198 29.984 14.993V10.258C29.984 10.1544 29.9636 10.0518 29.9239 9.95606C29.8843 9.86034 29.8262 9.77336 29.7529 9.70009C29.6796 9.62683 29.5927 9.56871 29.4969 9.52906C29.4012 9.48941 29.2986 9.469 29.195 9.469C28.4595 9.46866 27.7314 9.61583 27.0538 9.90182C26.3762 10.1878 25.7628 10.6068 25.25 11.134V7.828C26.563 7.63764 27.7638 6.9813 28.6329 5.97886C29.5021 4.97641 29.9816 3.69477 29.984 2.368V0.789C29.984 0.580608 29.9016 0.380676 29.7547 0.232853C29.6078 0.0850298 29.4084 0.00132061 29.2 0C28.2454 0.00133438 27.3075 0.25014 26.4778 0.722131C25.6481 1.19412 24.955 1.87317 24.466 2.693C23.9766 1.87244 23.2827 1.19293 22.452 0.720898C21.6213 0.248865 20.6824 0.000469825 19.727 0C19.5177 0 19.3171 0.0831265 19.1691 0.231093C19.0211 0.379059 18.938 0.579744 18.938 0.789V2.367C18.9404 3.69377 19.4199 4.97542 20.2891 5.97786C21.1582 6.9803 22.359 7.63664 23.672 7.827V11.133C23.1592 10.6058 22.5458 10.1868 21.8682 9.90082C21.1906 9.61483 20.4625 9.46766 19.727 9.468C19.5177 9.468 19.3171 9.55113 19.1691 9.69909C19.0211 9.84706 18.938 10.0477 18.938 10.257V14.991C18.9404 16.3178 19.4199 17.5994 20.2891 18.6019C21.1582 19.6043 22.359 20.2606 23.672 20.451V23.757C23.1592 23.2298 22.5458 22.8108 21.8682 22.5248C21.1906 22.2388 20.4625 22.0917 19.727 22.092C19.5177 22.092 19.3171 22.1751 19.1691 22.3231C19.0211 22.4711 18.938 22.6717 18.938 22.881V30.772C18.9404 32.0988 19.4199 33.3804 20.2891 34.3829C21.1582 35.3853 22.359 36.0416 23.672 36.232V41.063C22.7436 41.0925 21.8183 41.1837 20.902 41.336C17.61 40.7611 14.2276 40.9966 11.047 42.022V40.968C12.36 40.7776 13.5608 40.1213 14.4299 39.1189C15.2991 38.1164 15.7786 36.8348 15.781 35.508V27.617C15.781 27.4077 15.6979 27.2071 15.5499 27.0591C15.4019 26.9111 15.2013 26.828 14.992 26.828C14.2564 26.8278 13.5283 26.9751 12.8507 27.2613C12.1731 27.5474 11.5598 27.9666 11.047 28.494V25.188C12.36 24.9976 13.5608 24.3413 14.4299 23.3389C15.2991 22.3364 15.7786 21.0548 15.781 19.728V14.993C15.781 14.7837 15.6979 14.5831 15.5499 14.4351C15.4019 14.2871 15.2013 14.204 14.992 14.204C14.2565 14.2037 13.5284 14.3508 12.8508 14.6368C12.1732 14.9228 11.5598 15.3418 11.047 15.869V12.563C12.3606 12.3726 13.5617 11.7158 14.4309 10.7127C15.3001 9.70965 15.7794 8.42728 15.781 7.1V5.523C15.781 5.31374 15.6979 5.11306 15.5499 4.96509C15.4019 4.81713 15.2013 4.734 14.992 4.734C14.0374 4.73533 13.0995 4.98414 12.2698 5.45613C11.4401 5.92812 10.747 6.60717 10.258 7.427C9.76896 6.60703 9.07564 5.92788 8.24575 5.45588C7.41585 4.98388 6.47773 4.73516 5.523 4.734C5.31374 4.734 5.11306 4.81713 4.96509 4.96509C4.81713 5.11306 4.734 5.31374 4.734 5.523V7.1C4.73636 8.42677 5.2159 9.70842 6.08505 10.7109C6.95421 11.7133 8.15496 12.3696 9.468 12.56V15.866C8.95525 15.3386 8.34192 14.9194 7.6643 14.6333C6.98669 14.3471 6.25856 14.1998 5.523 14.2C5.31374 14.2 5.11306 14.2831 4.96509 14.4311C4.81713 14.5791 4.734 14.7797 4.734 14.989V19.723C4.73636 21.0498 5.2159 22.3314 6.08505 23.3339C6.95421 24.3363 8.15496 24.9926 9.468 25.183V28.489C8.95516 27.9618 8.3418 27.5428 7.66419 27.2568C6.98658 26.9708 6.25849 26.8237 5.523 26.824C5.31374 26.824 5.11306 26.9071 4.96509 27.0551C4.81713 27.2031 4.734 27.4037 4.734 27.613V35.504C4.73636 36.8308 5.2159 38.1124 6.08505 39.1149C6.95421 40.1173 8.15496 40.7736 9.468 40.964V42.587C7.57998 43.345 5.81216 44.3734 4.22 45.64L2.09 47.34H0V48.918H48.922V47.344H46.832ZM42.609 28.486V35.508C42.608 36.4171 42.2936 37.2981 41.7187 38.0024C41.1437 38.7066 40.3435 39.1911 39.453 39.374V32.352C39.454 31.4429 39.7684 30.5619 40.3433 29.8576C40.9183 29.1534 41.7185 28.6689 42.609 28.486ZM42.609 15.861V19.727C42.608 20.6361 42.2936 21.5171 41.7187 22.2214C41.1437 22.9256 40.3435 23.4101 39.453 23.593V19.727C39.454 18.8179 39.7684 17.9369 40.3433 17.2326C40.9183 16.5284 41.7185 16.0439 42.609 15.861ZM42.609 6.392V7.1C42.608 8.00913 42.2936 8.89011 41.7187 9.59437C41.1437 10.2986 40.3435 10.7831 39.453 10.966V10.257C39.4542 9.34804 39.7688 8.4673 40.3437 7.76325C40.9186 7.05919 41.7186 6.57489 42.609 6.392ZM34.719 7.1V6.392C35.6094 6.5751 36.4095 7.0596 36.9844 7.76382C37.5593 8.46804 37.8738 9.34892 37.875 10.258V10.967C36.9843 10.784 36.184 10.2994 35.609 9.59498C35.0341 8.89051 34.7197 8.0093 34.719 7.1ZM34.719 19.725V15.861C35.6094 16.0441 36.4095 16.5286 36.9844 17.2328C37.5593 17.937 37.8738 18.8179 37.875 19.727V23.593C36.9845 23.4101 36.1843 22.9256 35.6093 22.2214C35.0344 21.5171 34.72 20.6361 34.719 19.727V19.725ZM34.719 35.506V28.486C35.6094 28.6691 36.4095 29.1536 36.9844 29.8578C37.5593 30.562 37.8738 31.4429 37.875 32.352V39.374C36.9845 39.1911 36.1843 38.7066 35.6093 38.0024C35.0344 37.2981 34.72 36.4171 34.719 35.508V35.506ZM14.2 28.486V35.508C14.199 36.4171 13.8846 37.2981 13.3097 38.0024C12.7347 38.7066 11.9345 39.1911 11.044 39.374V32.352C11.045 31.4429 11.3594 30.5619 11.9343 29.8576C12.5093 29.1534 13.3095 28.6689 14.2 28.486ZM14.2 15.861V19.727C14.199 20.6361 13.8846 21.5171 13.3097 22.2214C12.7347 22.9256 11.9345 23.4101 11.044 23.593V19.727C11.045 18.8179 11.3594 17.9369 11.9343 17.2326C12.5093 16.5284 13.3095 16.0439 14.2 15.861ZM14.2 6.392V7.1C14.199 8.00913 13.8846 8.89011 13.3097 9.59437C12.7347 10.2986 11.9345 10.7831 11.044 10.966V10.257C11.0452 9.34804 11.3598 8.4673 11.9347 7.76325C12.5096 7.05919 13.3096 6.57489 14.2 6.392ZM6.313 7.1V6.392C7.20345 6.5751 8.00354 7.0596 8.57843 7.76382C9.15332 8.46804 9.46785 9.34892 9.469 10.258V10.967C8.5783 10.784 7.77797 10.2994 7.20303 9.59498C6.62809 8.89051 6.31373 8.0093 6.313 7.1ZM6.313 19.725V15.861C7.20345 16.0441 8.00354 16.5286 8.57843 17.2328C9.15332 17.937 9.46785 18.8179 9.469 19.727V23.593C8.57847 23.4101 7.77826 22.9256 7.20334 22.2214C6.62842 21.5171 6.31396 20.6361 6.313 19.727V19.725ZM6.313 35.506V28.486C7.20345 28.6691 8.00354 29.1536 8.57843 29.8578C9.15332 30.562 9.46785 31.4429 9.469 32.352V39.374C8.57847 39.1911 7.77826 38.7066 7.20334 38.0024C6.62842 37.2981 6.31396 36.4171 6.313 35.508V35.506ZM43.713 46.871L44.302 47.342H39.73L37.6 45.642C36.0477 44.4087 34.3287 43.4014 32.494 42.65C36.5836 42.8545 40.507 44.3316 43.716 46.875L43.713 46.871ZM24.461 42.609C28.8779 42.6145 33.1624 44.1173 36.615 46.872L37.204 47.343H11.718L12.307 46.872C15.7596 44.1173 20.0441 42.6145 24.461 42.609ZM28.406 23.751V30.773C28.405 31.6821 28.0906 32.5631 27.5157 33.2674C26.9407 33.9716 26.1405 34.4561 25.25 34.639V27.617C25.2512 26.708 25.5658 25.8273 26.1407 25.1232C26.7156 24.4192 27.5156 23.9349 28.406 23.752V23.751ZM28.406 11.126V14.992C28.405 15.9011 28.0906 16.7821 27.5157 17.4864C26.9407 18.1906 26.1405 18.6751 25.25 18.858V14.992C25.2512 14.083 25.5658 13.2023 26.1407 12.4982C26.7156 11.7942 27.5156 11.3089 28.406 11.126ZM28.406 1.657V2.366C28.4053 3.2753 28.0909 4.15652 27.516 4.86098C26.941 5.56544 26.1407 6.05004 25.25 6.233V5.523C25.2512 4.61404 25.5658 3.7333 26.1407 3.02925C26.7156 2.32519 27.5156 1.83989 28.406 1.657ZM20.515 2.366V1.658C21.4055 1.84093 22.2057 2.32537 22.7807 3.02963C23.3556 3.73389 23.67 4.61487 23.671 5.524V6.233C22.7805 6.05007 21.9803 5.56563 21.4053 4.86137C20.8304 4.15711 20.516 3.27613 20.515 2.367V2.366ZM20.515 14.991V11.127C21.4054 11.3101 22.2055 11.7946 22.7804 12.4988C23.3553 13.203 23.6698 14.0839 23.671 14.993V18.859C22.7805 18.6758 21.9804 18.1912 21.4056 17.4867C20.8309 16.7823 20.5167 15.9012 20.516 14.992L20.515 14.991ZM20.515 30.772V23.752C21.4055 23.9349 22.2057 24.4194 22.7807 25.1236C23.3556 25.8279 23.67 26.7089 23.671 27.618V34.64C22.7805 34.4568 21.9804 33.9722 21.4056 33.2677C20.8309 32.5633 20.5167 31.6822 20.516 30.773L20.515 30.772ZM5.205 46.872C8.41397 44.3286 12.3374 42.8515 16.427 42.647C14.5922 43.3978 12.8731 44.4048 11.321 45.638L9.191 47.338H4.617L5.205 46.872Z" fill="#545AE8"/>
</svg>
