<svg width="8" height="12" viewBox="0 0 8 12" fill="none" xmlns="http://www.w3.org/2000/svg">
<path d="M5.33935 5.91302L1.21435 1.79202C1.1419 1.71991 1.08442 1.63421 1.04519 1.53982C1.00597 1.44543 0.985774 1.34423 0.985774 1.24202C0.985774 1.13981 1.00597 1.0386 1.04519 0.944214C1.08442 0.849829 1.1419 0.764122 1.21435 0.692017C1.36126 0.548121 1.55871 0.467529 1.76435 0.467529C1.96999 0.467529 2.16744 0.548121 2.31435 0.692017L6.98735 5.36202C7.12852 5.50375 7.20968 5.69441 7.21396 5.89441C7.21825 6.09441 7.14533 6.28837 7.01035 6.43602L2.31735 11.136C2.24669 11.2149 2.16069 11.2786 2.0646 11.3231C1.96851 11.3677 1.86434 11.3921 1.75847 11.3951C1.6526 11.398 1.54724 11.3793 1.44884 11.3401C1.35044 11.3009 1.26106 11.2421 1.18617 11.1672C1.11128 11.0923 1.05245 11.0029 1.01327 10.9045C0.974087 10.8061 0.955386 10.7008 0.958304 10.5949C0.961221 10.489 0.985699 10.3849 1.03024 10.2888C1.07478 10.1927 1.13844 10.1067 1.21735 10.036L5.33935 5.91302Z" fill="#545AE8"/>
</svg>
