<svg width="7" height="10" viewBox="0 0 7 10" fill="none" xmlns="http://www.w3.org/2000/svg">
<path d="M4.52462 4.83092L0.94162 1.25092C0.878609 1.18828 0.828606 1.1138 0.794484 1.03177C0.760362 0.949734 0.742796 0.861763 0.742796 0.772916C0.742796 0.684069 0.760362 0.596099 0.794484 0.514066C0.828606 0.432032 0.878609 0.357555 0.94162 0.294917C1.06925 0.168991 1.24133 0.0983887 1.42062 0.0983887C1.59991 0.0983887 1.77199 0.168991 1.89962 0.294917L5.95862 4.35092C6.08146 4.47393 6.1521 4.6396 6.15582 4.8134C6.15955 4.98721 6.09607 5.15575 5.97862 5.28392L1.90262 9.36892C1.84056 9.43492 1.76588 9.48779 1.68301 9.5244C1.60014 9.56101 1.51077 9.58062 1.42018 9.58206C1.32959 9.5835 1.23964 9.56674 1.15565 9.53278C1.07166 9.49882 0.99534 9.44835 0.931211 9.38436C0.867083 9.32036 0.816451 9.24415 0.782316 9.16023C0.748181 9.07631 0.731236 8.98639 0.732486 8.8958C0.733737 8.80521 0.753157 8.7158 0.789595 8.63285C0.826034 8.5499 0.878749 8.47512 0.94462 8.41292L4.52462 4.83092Z" fill="#545AE8"/>
</svg>
