<svg width="19" height="19" viewBox="0 0 19 19" fill="none" xmlns="http://www.w3.org/2000/svg">
<g clip-path="url(#clip0_1112_16430)">
<path d="M18.2077 15.0417C18.2077 15.4616 18.0409 15.8643 17.7439 16.1613C17.447 16.4582 17.0443 16.625 16.6244 16.625H2.37435C1.95442 16.625 1.5517 16.4582 1.25476 16.1613C0.957831 15.8643 0.791016 15.4616 0.791016 15.0417V6.33333C0.791016 5.91341 0.957831 5.51068 1.25476 5.21375C1.5517 4.91681 1.95442 4.75 2.37435 4.75H5.54102L7.12435 2.375H11.8744L13.4577 4.75H16.6244C17.0443 4.75 17.447 4.91681 17.7439 5.21375C18.0409 5.51068 18.2077 5.91341 18.2077 6.33333V15.0417Z" stroke="white" stroke-width="2" stroke-linecap="round" stroke-linejoin="round"/>
<path d="M9.50065 13.4583C11.2496 13.4583 12.6673 12.0406 12.6673 10.2917C12.6673 8.54276 11.2496 7.125 9.50065 7.125C7.75175 7.125 6.33398 8.54276 6.33398 10.2917C6.33398 12.0406 7.75175 13.4583 9.50065 13.4583Z" stroke="white" stroke-width="2" stroke-linecap="round" stroke-linejoin="round"/>
</g>
<defs>
<clipPath id="clip0_1112_16430">
<rect width="19" height="19" fill="white"/>
</clipPath>
</defs>
</svg>
