<svg width="166" height="80" viewBox="0 0 166 80" fill="none" xmlns="http://www.w3.org/2000/svg">
<g opacity="0.28">
<path d="M72.6877 6.33206C72.1287 6.33206 71.5824 6.16631 71.1176 5.85579C70.6529 5.54526 70.2907 5.1039 70.0768 4.58752C69.8629 4.07113 69.8069 3.50292 69.916 2.95473C70.025 2.40654 70.2942 1.90299 70.6894 1.50777C71.0846 1.11255 71.5882 0.843398 72.1363 0.734356C72.6845 0.625314 73.2528 0.681278 73.7691 0.895171C74.2855 1.10906 74.7269 1.47128 75.0374 1.93601C75.3479 2.40075 75.5137 2.94712 75.5137 3.50605C75.5137 4.25556 75.2159 4.97436 74.686 5.50434C74.156 6.03432 73.4372 6.33206 72.6877 6.33206Z" fill="white"/>
<path d="M72.6877 30.622C72.1288 30.622 71.5824 30.4563 71.1177 30.1459C70.653 29.8354 70.2908 29.3941 70.0769 28.8777C69.863 28.3614 69.8069 27.7933 69.9159 27.2451C70.0249 26.6969 70.2939 26.1934 70.689 25.7981C71.0842 25.4029 71.5876 25.1336 72.1357 25.0245C72.6839 24.9153 73.252 24.9711 73.7684 25.1849C74.2848 25.3986 74.7263 25.7607 75.0369 26.2253C75.3476 26.6899 75.5135 27.2362 75.5137 27.795C75.5138 28.1662 75.4408 28.5338 75.2988 28.8768C75.1569 29.2198 74.9487 29.5315 74.6863 29.794C74.4239 30.0565 74.1123 30.2648 73.7694 30.4068C73.4264 30.5489 73.0589 30.622 72.6877 30.622Z" fill="white"/>
<path d="M72.6877 54.911C72.1287 54.911 71.5824 54.7453 71.1176 54.4348C70.6529 54.1243 70.2907 53.6829 70.0768 53.1665C69.8629 52.6501 69.8069 52.0819 69.916 51.5337C70.025 50.9855 70.2942 50.482 70.6894 50.0868C71.0846 49.6915 71.5882 49.4224 72.1363 49.3134C72.6845 49.2043 73.2528 49.2603 73.7691 49.4742C74.2855 49.6881 74.7269 50.0503 75.0374 50.515C75.3479 50.9797 75.5137 51.5261 75.5137 52.085C75.5137 52.8346 75.2159 53.5534 74.686 54.0833C74.156 54.6133 73.4372 54.911 72.6877 54.911Z" fill="white"/>
<path d="M72.6877 79.2C72.1287 79.2 71.5824 79.0343 71.1176 78.7238C70.6529 78.4132 70.2907 77.9719 70.0768 77.4555C69.8629 76.9391 69.8069 76.3709 69.916 75.8227C70.025 75.2745 70.2942 74.771 70.6894 74.3758C71.0846 73.9805 71.5882 73.7114 72.1363 73.6023C72.6845 73.4933 73.2528 73.5493 73.7691 73.7632C74.2855 73.977 74.7269 74.3393 75.0374 74.804C75.3479 75.2687 75.5137 75.8151 75.5137 76.374C75.5137 77.1235 75.2159 77.8423 74.686 78.3723C74.156 78.9023 73.4372 79.2 72.6877 79.2Z" fill="white"/>
<path d="M49.6535 6.33205C49.0946 6.33186 48.5483 6.16595 48.0837 5.8553C47.6191 5.54466 47.257 5.10323 47.0433 4.58683C46.8296 4.07042 46.7737 3.50224 46.8829 2.95412C46.992 2.40599 47.2613 1.90254 47.6565 1.50742C48.0518 1.11229 48.5553 0.843243 49.1035 0.734283C49.6517 0.625322 50.2198 0.681344 50.7362 0.895267C51.2525 1.10919 51.6938 1.47141 52.0043 1.93612C52.3148 2.40083 52.4805 2.94717 52.4805 3.50605C52.4805 3.87725 52.4073 4.24482 52.2653 4.58775C52.1232 4.93068 51.9149 5.24226 51.6524 5.50469C51.3899 5.76712 51.0782 5.97526 50.7352 6.11723C50.3923 6.25919 50.0247 6.33219 49.6535 6.33205Z" fill="white"/>
<path d="M49.6535 30.622C49.0946 30.6219 48.5484 30.456 48.0838 30.1454C47.6192 29.8348 47.2572 29.3934 47.0434 28.877C46.8296 28.3607 46.7737 27.7926 46.8828 27.2445C46.9919 26.6964 47.261 26.1929 47.6562 25.7978C48.0513 25.4026 48.5548 25.1335 49.1029 25.0244C49.651 24.9153 50.2191 24.9712 50.7355 25.185C51.2518 25.3987 51.6932 25.7608 52.0038 26.2254C52.3144 26.69 52.4803 27.2362 52.4805 27.795C52.4805 28.5448 52.1826 29.2639 51.6525 29.794C51.1223 30.3242 50.4032 30.622 49.6535 30.622Z" fill="white"/>
<path d="M49.6535 54.911C49.0946 54.9109 48.5483 54.7449 48.0837 54.4343C47.6191 54.1237 47.257 53.6822 47.0433 53.1658C46.8296 52.6494 46.7737 52.0812 46.8829 51.5331C46.992 50.985 47.2613 50.4815 47.6565 50.0864C48.0518 49.6913 48.5553 49.4222 49.1035 49.3133C49.6517 49.2043 50.2198 49.2603 50.7362 49.4743C51.2525 49.6882 51.6938 50.0504 52.0043 50.5151C52.3148 50.9798 52.4805 51.5262 52.4805 52.085C52.4802 52.8346 52.1822 53.5534 51.6521 54.0834C51.122 54.6133 50.4031 54.911 49.6535 54.911Z" fill="white"/>
<path d="M49.6535 79.2C49.0946 79.1998 48.5483 79.0339 48.0837 78.7233C47.6191 78.4126 47.257 77.9712 47.0433 77.4548C46.8296 76.9384 46.7737 76.3702 46.8829 75.8221C46.992 75.274 47.2613 74.7705 47.6565 74.3754C48.0518 73.9803 48.5553 73.7112 49.1035 73.6023C49.6517 73.4933 50.2198 73.5493 50.7362 73.7632C51.2525 73.9772 51.6938 74.3394 52.0043 74.8041C52.3148 75.2688 52.4805 75.8151 52.4805 76.374C52.4805 76.7452 52.4073 77.1128 52.2653 77.4557C52.1232 77.7987 51.9149 78.1102 51.6524 78.3727C51.3899 78.6351 51.0782 78.8432 50.7352 78.9852C50.3923 79.1272 50.0247 79.2002 49.6535 79.2Z" fill="white"/>
<path d="M26.6174 6.33206C26.0584 6.33206 25.5121 6.16631 25.0473 5.85579C24.5826 5.54526 24.2204 5.1039 24.0065 4.58752C23.7926 4.07113 23.7366 3.50292 23.8457 2.95473C23.9547 2.40654 24.2239 1.90299 24.6191 1.50777C25.0143 1.11255 25.5178 0.843398 26.066 0.734356C26.6142 0.625314 27.1824 0.681278 27.6988 0.895171C28.2152 1.10906 28.6566 1.47128 28.9671 1.93601C29.2776 2.40075 29.4434 2.94712 29.4434 3.50605C29.4434 4.25556 29.1456 4.97436 28.6156 5.50434C28.0857 6.03432 27.3669 6.33206 26.6174 6.33206Z" fill="white"/>
<path d="M26.6174 30.622C26.0585 30.622 25.5121 30.4563 25.0474 30.1459C24.5827 29.8354 24.2205 29.3941 24.0066 28.8777C23.7926 28.3614 23.7366 27.7933 23.8456 27.2451C23.9545 26.6969 24.2236 26.1934 24.6187 25.7981C25.0138 25.4029 25.5173 25.1336 26.0654 25.0245C26.6135 24.9153 27.1817 24.9711 27.6981 25.1849C28.2145 25.3986 28.656 25.7607 28.9666 26.2253C29.2773 26.6899 29.4432 27.2362 29.4434 27.795C29.4435 28.1662 29.3705 28.5338 29.2285 28.8768C29.0866 29.2198 28.8784 29.5315 28.616 29.794C28.3536 30.0565 28.042 30.2648 27.6991 30.4068C27.3561 30.5489 26.9886 30.622 26.6174 30.622Z" fill="white"/>
<path d="M26.6174 54.911C26.0584 54.911 25.5121 54.7453 25.0473 54.4348C24.5826 54.1243 24.2204 53.6829 24.0065 53.1665C23.7926 52.6501 23.7366 52.0819 23.8457 51.5337C23.9547 50.9855 24.2239 50.482 24.6191 50.0868C25.0143 49.6915 25.5178 49.4224 26.066 49.3134C26.6142 49.2043 27.1824 49.2603 27.6988 49.4742C28.2152 49.6881 28.6566 50.0503 28.9671 50.515C29.2776 50.9797 29.4434 51.5261 29.4434 52.085C29.4434 52.8346 29.1456 53.5534 28.6156 54.0833C28.0857 54.6133 27.3669 54.911 26.6174 54.911Z" fill="white"/>
<path d="M26.6174 79.2C26.0584 79.2 25.5121 79.0343 25.0473 78.7238C24.5826 78.4132 24.2204 77.9719 24.0065 77.4555C23.7926 76.9391 23.7366 76.3709 23.8457 75.8227C23.9547 75.2745 24.2239 74.771 24.6191 74.3758C25.0143 73.9805 25.5178 73.7114 26.066 73.6023C26.6142 73.4933 27.1824 73.5493 27.6988 73.7632C28.2152 73.977 28.6566 74.3393 28.9671 74.804C29.2776 75.2687 29.4434 75.8151 29.4434 76.374C29.4434 77.1235 29.1456 77.8423 28.6156 78.3723C28.0857 78.9023 27.3669 79.2 26.6174 79.2Z" fill="white"/>
<path d="M3.58316 6.33205C3.02427 6.33186 2.47799 6.16595 2.01339 5.8553C1.54879 5.54466 1.18673 5.10323 0.972986 4.58683C0.759246 4.07042 0.703424 3.50224 0.812579 2.95412C0.921734 2.40599 1.19096 1.90254 1.58623 1.50742C1.98149 1.11229 2.48504 0.843243 3.0332 0.734283C3.58136 0.625322 4.14952 0.681344 4.66585 0.895267C5.18218 1.10919 5.62348 1.47141 5.93396 1.93612C6.24444 2.40083 6.41016 2.94717 6.41016 3.50605C6.41016 3.87725 6.33703 4.24482 6.19494 4.58775C6.05286 4.93068 5.84461 5.24226 5.58209 5.50469C5.31956 5.76712 5.00791 5.97526 4.66493 6.11723C4.32195 6.25919 3.95436 6.33219 3.58316 6.33205Z" fill="white"/>
<path d="M3.58316 30.622C3.02431 30.6219 2.47807 30.456 2.01349 30.1454C1.54891 29.8348 1.18685 29.3934 0.973082 28.877C0.759312 28.3607 0.703433 27.7926 0.812506 27.2445C0.92158 26.6964 1.19071 26.1929 1.58587 25.7978C1.98104 25.4026 2.48449 25.1335 3.03259 25.0244C3.58068 24.9153 4.14881 24.9712 4.66516 25.185C5.1815 25.3987 5.62287 25.7608 5.93347 26.2254C6.24407 26.69 6.40996 27.2362 6.41016 27.795C6.41016 28.5448 6.11231 29.2639 5.58215 29.794C5.05198 30.3242 4.33292 30.622 3.58316 30.622Z" fill="white"/>
<path d="M3.58316 54.911C3.02427 54.9109 2.47799 54.7449 2.01339 54.4343C1.54879 54.1237 1.18673 53.6822 0.972986 53.1658C0.759246 52.6494 0.703424 52.0812 0.812579 51.5331C0.921734 50.985 1.19096 50.4815 1.58623 50.0864C1.98149 49.6913 2.48504 49.4222 3.0332 49.3133C3.58136 49.2043 4.14952 49.2603 4.66585 49.4743C5.18218 49.6882 5.62348 50.0504 5.93396 50.5151C6.24444 50.9798 6.41016 51.5262 6.41016 52.085C6.40989 52.8346 6.11193 53.5534 5.58179 54.0834C5.05166 54.6133 4.33275 54.911 3.58316 54.911Z" fill="white"/>
<path d="M3.58316 79.2C3.02427 79.1998 2.47799 79.0339 2.01339 78.7233C1.54879 78.4126 1.18673 77.9712 0.972986 77.4548C0.759246 76.9384 0.703424 76.3702 0.812579 75.8221C0.921734 75.274 1.19096 74.7705 1.58623 74.3754C1.98149 73.9803 2.48504 73.7112 3.0332 73.6023C3.58136 73.4933 4.14952 73.5493 4.66585 73.7632C5.18218 73.9772 5.62348 74.3394 5.93396 74.8041C6.24444 75.2688 6.41016 75.8151 6.41016 76.374C6.41016 76.7452 6.33703 77.1128 6.19494 77.4557C6.05286 77.7987 5.84461 78.1102 5.58209 78.3727C5.31956 78.6351 5.00791 78.8432 4.66493 78.9852C4.32195 79.1272 3.95436 79.2002 3.58316 79.2Z" fill="white"/>
<path d="M162.351 6.33205C161.792 6.33186 161.246 6.16595 160.781 5.8553C160.316 5.54466 159.954 5.10323 159.741 4.58683C159.527 4.07042 159.471 3.50224 159.58 2.95412C159.689 2.40599 159.959 1.90254 160.354 1.50742C160.749 1.11229 161.253 0.843243 161.801 0.734283C162.349 0.625322 162.917 0.681344 163.433 0.895267C163.95 1.10919 164.391 1.47141 164.702 1.93612C165.012 2.40083 165.178 2.94717 165.178 3.50605C165.178 3.87725 165.105 4.24482 164.963 4.58775C164.82 4.93068 164.612 5.24226 164.35 5.50469C164.087 5.76712 163.775 5.97526 163.433 6.11723C163.09 6.25919 162.722 6.33219 162.351 6.33205Z" fill="white"/>
<path d="M162.351 30.622C161.792 30.6219 161.246 30.456 160.781 30.1454C160.316 29.8348 159.954 29.3934 159.741 28.877C159.527 28.3607 159.471 27.7926 159.58 27.2445C159.689 26.6964 159.958 26.1929 160.353 25.7978C160.749 25.4026 161.252 25.1335 161.8 25.0244C162.348 24.9153 162.916 24.9712 163.433 25.185C163.949 25.3987 164.39 25.7608 164.701 26.2254C165.012 26.69 165.178 27.2362 165.178 27.795C165.178 28.5448 164.88 29.2639 164.35 29.794C163.82 30.3242 163.101 30.622 162.351 30.622Z" fill="white"/>
<path d="M162.351 54.911C161.792 54.9109 161.246 54.7449 160.781 54.4343C160.316 54.1237 159.954 53.6822 159.741 53.1658C159.527 52.6494 159.471 52.0812 159.58 51.5331C159.689 50.985 159.959 50.4815 160.354 50.0864C160.749 49.6913 161.253 49.4222 161.801 49.3133C162.349 49.2043 162.917 49.2603 163.433 49.4743C163.95 49.6882 164.391 50.0504 164.702 50.5151C165.012 50.9798 165.178 51.5262 165.178 52.085C165.177 52.8346 164.88 53.5534 164.349 54.0834C163.819 54.6133 163.1 54.911 162.351 54.911Z" fill="white"/>
<path d="M162.351 79.2C161.792 79.1998 161.246 79.0339 160.781 78.7233C160.316 78.4126 159.954 77.9712 159.741 77.4548C159.527 76.9384 159.471 76.3702 159.58 75.8221C159.689 75.274 159.959 74.7705 160.354 74.3754C160.749 73.9803 161.253 73.7112 161.801 73.6023C162.349 73.4933 162.917 73.5493 163.433 73.7632C163.95 73.9772 164.391 74.3394 164.702 74.8041C165.012 75.2688 165.178 75.8151 165.178 76.374C165.178 76.7452 165.105 77.1128 164.963 77.4557C164.82 77.7987 164.612 78.1102 164.35 78.3727C164.087 78.6351 163.775 78.8432 163.433 78.9852C163.09 79.1272 162.722 79.2002 162.351 79.2Z" fill="white"/>
<path d="M139.317 6.33206C138.758 6.33206 138.211 6.16631 137.747 5.85579C137.282 5.54526 136.92 5.1039 136.706 4.58752C136.492 4.07113 136.436 3.50292 136.545 2.95473C136.654 2.40654 136.923 1.90299 137.318 1.50777C137.714 1.11255 138.217 0.843398 138.765 0.734356C139.313 0.625314 139.882 0.681278 140.398 0.895171C140.914 1.10906 141.356 1.47128 141.666 1.93601C141.977 2.40075 142.143 2.94712 142.143 3.50605C142.143 4.25556 141.845 4.97436 141.315 5.50434C140.785 6.03432 140.066 6.33206 139.317 6.33206Z" fill="white"/>
<path d="M139.317 30.622C138.758 30.622 138.211 30.4563 137.747 30.1459C137.282 29.8354 136.92 29.3941 136.706 28.8777C136.492 28.3614 136.436 27.7933 136.545 27.2451C136.654 26.6969 136.923 26.1934 137.318 25.7981C137.713 25.4029 138.217 25.1336 138.765 25.0245C139.313 24.9153 139.881 24.9711 140.397 25.1849C140.914 25.3986 141.355 25.7607 141.666 26.2253C141.976 26.6899 142.142 27.2362 142.143 27.795C142.143 28.1662 142.07 28.5338 141.928 28.8768C141.786 29.2198 141.578 29.5315 141.315 29.794C141.053 30.0565 140.741 30.2648 140.398 30.4068C140.055 30.5489 139.688 30.622 139.317 30.622Z" fill="white"/>
<path d="M139.317 54.911C138.758 54.911 138.211 54.7453 137.747 54.4348C137.282 54.1243 136.92 53.6829 136.706 53.1665C136.492 52.6501 136.436 52.0819 136.545 51.5337C136.654 50.9855 136.923 50.482 137.318 50.0868C137.714 49.6915 138.217 49.4224 138.765 49.3134C139.313 49.2043 139.882 49.2603 140.398 49.4742C140.914 49.6881 141.356 50.0503 141.666 50.515C141.977 50.9797 142.143 51.5261 142.143 52.085C142.143 52.8346 141.845 53.5534 141.315 54.0833C140.785 54.6133 140.066 54.911 139.317 54.911Z" fill="white"/>
<path d="M139.317 79.2C138.758 79.2 138.211 79.0343 137.747 78.7238C137.282 78.4132 136.92 77.9719 136.706 77.4555C136.492 76.9391 136.436 76.3709 136.545 75.8227C136.654 75.2745 136.923 74.771 137.318 74.3758C137.714 73.9805 138.217 73.7114 138.765 73.6023C139.313 73.4933 139.882 73.5493 140.398 73.7632C140.914 73.977 141.356 74.3393 141.666 74.804C141.977 75.2687 142.143 75.8151 142.143 76.374C142.143 77.1235 141.845 77.8423 141.315 78.3723C140.785 78.9023 140.066 79.2 139.317 79.2Z" fill="white"/>
<path d="M116.28 6.33205C115.722 6.33186 115.175 6.16595 114.711 5.8553C114.246 5.54466 113.884 5.10323 113.67 4.58683C113.457 4.07042 113.401 3.50224 113.51 2.95412C113.619 2.40599 113.888 1.90254 114.283 1.50742C114.679 1.11229 115.182 0.843243 115.73 0.734283C116.279 0.625322 116.847 0.681344 117.363 0.895267C117.879 1.10919 118.321 1.47141 118.631 1.93612C118.942 2.40083 119.107 2.94717 119.107 3.50605C119.107 3.87725 119.034 4.24482 118.892 4.58775C118.75 4.93068 118.542 5.24226 118.279 5.50469C118.017 5.76712 117.705 5.97526 117.362 6.11723C117.019 6.25919 116.652 6.33219 116.28 6.33205Z" fill="white"/>
<path d="M116.28 30.622C115.722 30.6219 115.175 30.456 114.711 30.1454C114.246 29.8348 113.884 29.3934 113.67 28.877C113.457 28.3607 113.401 27.7926 113.51 27.2445C113.619 26.6964 113.888 26.1929 114.283 25.7978C114.678 25.4026 115.182 25.1335 115.73 25.0244C116.278 24.9153 116.846 24.9712 117.362 25.185C117.879 25.3987 118.32 25.7608 118.631 26.2254C118.941 26.69 119.107 27.2362 119.107 27.795C119.107 28.5448 118.81 29.2639 118.279 29.794C117.749 30.3242 117.03 30.622 116.28 30.622Z" fill="white"/>
<path d="M116.28 54.911C115.722 54.9109 115.175 54.7449 114.711 54.4343C114.246 54.1237 113.884 53.6822 113.67 53.1658C113.457 52.6494 113.401 52.0812 113.51 51.5331C113.619 50.985 113.888 50.4815 114.283 50.0864C114.679 49.6913 115.182 49.4222 115.73 49.3133C116.279 49.2043 116.847 49.2603 117.363 49.4743C117.879 49.6882 118.321 50.0504 118.631 50.5151C118.942 50.9798 119.107 51.5262 119.107 52.085C119.107 52.8346 118.809 53.5534 118.279 54.0834C117.749 54.6133 117.03 54.911 116.28 54.911Z" fill="white"/>
<path d="M116.28 79.2C115.722 79.1998 115.175 79.0339 114.711 78.7233C114.246 78.4126 113.884 77.9712 113.67 77.4548C113.457 76.9384 113.401 76.3702 113.51 75.8221C113.619 75.274 113.888 74.7705 114.283 74.3754C114.679 73.9803 115.182 73.7112 115.73 73.6023C116.279 73.4933 116.847 73.5493 117.363 73.7632C117.879 73.9772 118.321 74.3394 118.631 74.8041C118.942 75.2688 119.107 75.8151 119.107 76.374C119.107 76.7452 119.034 77.1128 118.892 77.4557C118.75 77.7987 118.542 78.1102 118.279 78.3727C118.017 78.6351 117.705 78.8432 117.362 78.9852C117.019 79.1272 116.652 79.2002 116.28 79.2Z" fill="white"/>
<path d="M93.2463 6.33206C92.6873 6.33206 92.141 6.16631 91.6762 5.85579C91.2115 5.54526 90.8493 5.1039 90.6354 4.58752C90.4215 4.07113 90.3655 3.50292 90.4746 2.95473C90.5836 2.40654 90.8528 1.90299 91.248 1.50777C91.6432 1.11255 92.1467 0.843398 92.6949 0.734356C93.2431 0.625314 93.8113 0.681278 94.3277 0.895171C94.8441 1.10906 95.2855 1.47128 95.596 1.93601C95.9065 2.40075 96.0723 2.94712 96.0723 3.50605C96.0723 4.25556 95.7745 4.97436 95.2445 5.50434C94.7146 6.03432 93.9958 6.33206 93.2463 6.33206Z" fill="white"/>
<path d="M93.2463 30.622C92.6874 30.622 92.141 30.4563 91.6763 30.1459C91.2116 29.8354 90.8494 29.3941 90.6355 28.8777C90.4216 28.3614 90.3655 27.7933 90.4745 27.2451C90.5835 26.6969 90.8525 26.1934 91.2476 25.7981C91.6428 25.4029 92.1462 25.1336 92.6943 25.0245C93.2425 24.9153 93.8106 24.9711 94.327 25.1849C94.8434 25.3986 95.2849 25.7607 95.5955 26.2253C95.9062 26.6899 96.0721 27.2362 96.0723 27.795C96.0724 28.1662 95.9994 28.5338 95.8574 28.8768C95.7155 29.2198 95.5073 29.5315 95.2449 29.794C94.9825 30.0565 94.6709 30.2648 94.328 30.4068C93.985 30.5489 93.6175 30.622 93.2463 30.622Z" fill="white"/>
<path d="M93.2463 54.911C92.6873 54.911 92.141 54.7453 91.6762 54.4348C91.2115 54.1243 90.8493 53.6829 90.6354 53.1665C90.4215 52.6501 90.3655 52.0819 90.4746 51.5337C90.5836 50.9855 90.8528 50.482 91.248 50.0868C91.6432 49.6915 92.1467 49.4224 92.6949 49.3134C93.2431 49.2043 93.8113 49.2603 94.3277 49.4742C94.8441 49.6881 95.2855 50.0503 95.596 50.515C95.9065 50.9797 96.0723 51.5261 96.0723 52.085C96.0723 52.8346 95.7745 53.5534 95.2445 54.0833C94.7146 54.6133 93.9958 54.911 93.2463 54.911Z" fill="white"/>
<path d="M93.2463 79.2C92.6873 79.2 92.141 79.0343 91.6762 78.7238C91.2115 78.4132 90.8493 77.9719 90.6354 77.4555C90.4215 76.9391 90.3655 76.3709 90.4746 75.8227C90.5836 75.2745 90.8528 74.771 91.248 74.3758C91.6432 73.9805 92.1467 73.7114 92.6949 73.6023C93.2431 73.4933 93.8113 73.5493 94.3277 73.7632C94.8441 73.977 95.2855 74.3393 95.596 74.804C95.9065 75.2687 96.0723 75.8151 96.0723 76.374C96.0723 77.1235 95.7745 77.8423 95.2445 78.3723C94.7146 78.9023 93.9958 79.2 93.2463 79.2Z" fill="white"/>
</g>
</svg>
