<svg width="47" height="47" viewBox="0 0 47 47" fill="none" xmlns="http://www.w3.org/2000/svg">
<path d="M23.4697 5.89025C23.2106 5.89025 22.9621 5.78732 22.7788 5.6041C22.5956 5.42087 22.4927 5.17237 22.4927 4.91325V1.00825C22.4885 0.877388 22.5107 0.747016 22.5578 0.624883C22.605 0.50275 22.6763 0.391348 22.7674 0.297296C22.8585 0.203244 22.9675 0.128461 23.0881 0.077389C23.2087 0.0263176 23.3383 0 23.4692 0C23.6001 0 23.7297 0.0263176 23.8503 0.077389C23.9708 0.128461 24.0799 0.203244 24.171 0.297296C24.2621 0.391348 24.3333 0.50275 24.3805 0.624883C24.4277 0.747016 24.4499 0.877388 24.4457 1.00825V4.91425C24.4454 5.17302 24.3425 5.42112 24.1595 5.6041C23.9766 5.78708 23.7285 5.88999 23.4697 5.89025Z" fill="#545AE8"/>
<path d="M36.5891 11.3242C36.3957 11.3252 36.2064 11.2686 36.0452 11.1618C35.8839 11.0549 35.7581 10.9025 35.6836 10.724C35.6092 10.5455 35.5894 10.3489 35.6269 10.1591C35.6644 9.96938 35.7574 9.79504 35.8941 9.65824L38.6561 6.89624C38.8393 6.71311 39.0877 6.61023 39.3466 6.61023C39.6056 6.61023 39.854 6.71311 40.0371 6.89624C40.2203 7.07938 40.3232 7.32776 40.3232 7.58674C40.3232 7.84573 40.2203 8.09411 40.0371 8.27724L37.2781 11.0422C37.0949 11.2239 36.8471 11.3253 36.5891 11.3242Z" fill="#545AE8"/>
<path d="M45.9289 24.4452H42.0229C41.892 24.4494 41.7617 24.4272 41.6395 24.38C41.5174 24.3329 41.406 24.2616 41.3119 24.1705C41.2179 24.0794 41.1431 23.9703 41.092 23.8498C41.041 23.7292 41.0146 23.5996 41.0146 23.4687C41.0146 23.3378 41.041 23.2082 41.092 23.0876C41.1431 22.967 41.2179 22.858 41.3119 22.7669C41.406 22.6758 41.5174 22.6045 41.6395 22.5574C41.7617 22.5102 41.892 22.488 42.0229 22.4922H45.9289C46.0598 22.488 46.1901 22.5102 46.3123 22.5574C46.4344 22.6045 46.5458 22.6758 46.6399 22.7669C46.7339 22.858 46.8087 22.967 46.8598 23.0876C46.9108 23.2082 46.9372 23.3378 46.9372 23.4687C46.9372 23.5996 46.9108 23.7292 46.8598 23.8498C46.8087 23.9703 46.7339 24.0794 46.6399 24.1705C46.5458 24.2616 46.4344 24.3329 46.3123 24.38C46.1901 24.4272 46.0598 24.4494 45.9289 24.4452Z" fill="#545AE8"/>
<path d="M39.3504 40.3273C39.0915 40.3272 38.8431 40.2247 38.6594 40.0423L35.8944 37.2803C35.7107 37.0967 35.6075 36.8478 35.6074 36.5881C35.6073 36.3285 35.7104 36.0794 35.8939 35.8958C36.0774 35.7121 36.3264 35.6089 36.5861 35.6088C36.8457 35.6087 37.0947 35.7117 37.2784 35.8953L40.0404 38.6573C40.1768 38.7937 40.2697 38.9675 40.3074 39.1567C40.345 39.3459 40.3258 39.542 40.2521 39.7203C40.1783 39.8985 40.0534 40.0509 39.8931 40.1583C39.7328 40.2656 39.5443 40.323 39.3514 40.3233L39.3504 40.3273Z" fill="#545AE8"/>
<path d="M23.4697 46.9053C23.2106 46.9053 22.9621 46.8023 22.7788 46.6191C22.5956 46.4359 22.4927 46.1874 22.4927 45.9283V42.0233C22.4885 41.8924 22.5107 41.762 22.5578 41.6399C22.605 41.5178 22.6763 41.4064 22.7674 41.3123C22.8585 41.2183 22.9675 41.1435 23.0881 41.0924C23.2087 41.0413 23.3383 41.015 23.4692 41.015C23.6001 41.015 23.7297 41.0413 23.8503 41.0924C23.9708 41.1435 24.0799 41.2183 24.171 41.3123C24.2621 41.4064 24.3333 41.5178 24.3805 41.6399C24.4277 41.762 24.4499 41.8924 24.4457 42.0233V45.9293C24.4454 46.188 24.3425 46.4361 24.1595 46.6191C23.9766 46.8021 23.7285 46.905 23.4697 46.9053Z" fill="#545AE8"/>
<path d="M7.5861 40.3272C7.39302 40.3274 7.20424 40.2703 7.04363 40.1631C6.88303 40.0559 6.75782 39.9035 6.68385 39.7252C6.60987 39.5468 6.59046 39.3505 6.62807 39.1612C6.66567 38.9718 6.7586 38.7978 6.8951 38.6612L9.6561 35.8952C9.83977 35.7116 10.0889 35.6084 10.3486 35.6084C10.6083 35.6084 10.8574 35.7116 11.0411 35.8952C11.2248 36.0789 11.3279 36.328 11.3279 36.5877C11.3279 36.8475 11.2248 37.0966 11.0411 37.2802L8.2751 40.0422C8.18464 40.1327 8.07721 40.2045 7.95899 40.2534C7.84076 40.3023 7.71405 40.3274 7.5861 40.3272Z" fill="#545AE8"/>
<path d="M4.91425 24.4452H1.00825C0.877388 24.4494 0.747016 24.4272 0.624883 24.38C0.50275 24.3329 0.391348 24.2616 0.297296 24.1705C0.203244 24.0794 0.128461 23.9703 0.077389 23.8498C0.0263176 23.7292 0 23.5996 0 23.4687C0 23.3378 0.0263176 23.2082 0.077389 23.0876C0.128461 22.967 0.203244 22.858 0.297296 22.7669C0.391348 22.6758 0.50275 22.6045 0.624883 22.5574C0.747016 22.5102 0.877388 22.488 1.00825 22.4922H4.91425C5.04512 22.488 5.17549 22.5102 5.29762 22.5574C5.41976 22.6045 5.53116 22.6758 5.62521 22.7669C5.71926 22.858 5.79404 22.967 5.84512 23.0876C5.89619 23.2082 5.92251 23.3378 5.92251 23.4687C5.92251 23.5996 5.89619 23.7292 5.84512 23.8498C5.79404 23.9703 5.71926 24.0794 5.62521 24.1705C5.53116 24.2616 5.41976 24.3329 5.29762 24.38C5.17549 24.4272 5.04512 24.4494 4.91425 24.4452Z" fill="#545AE8"/>
<path d="M10.3484 11.3242C10.0895 11.3252 9.8408 11.2239 9.65637 11.0422L6.89637 8.27724C6.71323 8.09411 6.61035 7.84573 6.61035 7.58674C6.61035 7.45851 6.63561 7.33152 6.68468 7.21305C6.73376 7.09457 6.80569 6.98692 6.89637 6.89624C6.98704 6.80557 7.09469 6.73364 7.21317 6.68456C7.33165 6.63549 7.45863 6.61023 7.58687 6.61023C7.84585 6.61023 8.09423 6.71311 8.27737 6.89624L11.0424 9.65824C11.1789 9.7948 11.2718 9.96877 11.3094 10.1582C11.347 10.3475 11.3276 10.5438 11.2536 10.7222C11.1797 10.9005 11.0544 11.0529 10.8938 11.1601C10.7332 11.2673 10.5444 11.3244 10.3514 11.3242H10.3484Z" fill="#545AE8"/>
<path d="M20.6825 39.0933C20.5658 39.0932 20.45 39.0725 20.3405 39.0323C20.1333 38.9551 19.9584 38.81 19.8445 38.6205C19.7306 38.431 19.6844 38.2084 19.7135 37.9893L21.3795 25.4213H14.6795C14.4987 25.4201 14.3219 25.3688 14.1685 25.273C14.0152 25.1773 13.8914 25.0409 13.811 24.879C13.7306 24.7171 13.6967 24.5361 13.713 24.3561C13.7293 24.176 13.7953 24.0041 13.9035 23.8593L25.6175 8.23429C25.7487 8.05895 25.9349 7.93276 26.1464 7.87596C26.3579 7.81917 26.5823 7.83507 26.7837 7.9211C26.985 8.00713 27.1517 8.15832 27.2568 8.35039C27.362 8.54247 27.3995 8.7643 27.3635 8.98029L25.5975 19.5623H32.2575C32.4338 19.5623 32.6067 19.6101 32.758 19.7006C32.9093 19.7911 33.0332 19.921 33.1165 20.0763C33.1992 20.2316 33.2389 20.4063 33.2313 20.5821C33.2238 20.758 33.1693 20.9286 33.0735 21.0763L21.4985 38.6553C21.409 38.7897 21.2876 38.8998 21.1453 38.9761C21.0029 39.0523 20.844 39.0932 20.6825 39.0933ZM16.6335 23.4683H22.4925C22.6315 23.4685 22.7689 23.4984 22.8955 23.5559C23.0221 23.6134 23.135 23.6973 23.2267 23.8018C23.3184 23.9064 23.3867 24.0292 23.4272 24.1622C23.4677 24.2953 23.4794 24.4354 23.4615 24.5733L22.2095 34.0223L30.4455 21.5143H24.4455C24.3036 21.5145 24.1634 21.4838 24.0346 21.4242C23.9059 21.3646 23.7916 21.2777 23.6999 21.1694C23.6082 21.0612 23.5413 20.9342 23.5037 20.7974C23.4662 20.6606 23.4589 20.5172 23.4825 20.3773L24.7775 12.6083L16.6335 23.4683Z" fill="#545AE8"/>
</svg>
