<svg xmlns="http://www.w3.org/2000/svg" width="13.438" height="16" viewBox="0 0 13.438 16">
  <g id="Group" transform="translate(-0.281)">
    <path id="Path_1" data-name="Path 1" d="M11.063,4.531H2.938A.469.469,0,0,0,2.469,5v.375a.469.469,0,0,0,.272.426A10.094,10.094,0,0,0,7,6.779,10.093,10.093,0,0,0,11.259,5.8a.469.469,0,0,0,.272-.426V5A.469.469,0,0,0,11.063,4.531Z"/>
    <path id="Path_2" data-name="Path 2" d="M6.13,16h.4V12.067a4.054,4.054,0,0,1-2.467-1.231Z"/>
    <path id="Path_3" data-name="Path 3" d="M7.469,16h.4l2.066-5.164a4.055,4.055,0,0,1-2.467,1.231Z"/>
    <path id="Path_4" data-name="Path 4" d="M3.034,10.784A5.464,5.464,0,0,0,.281,15.531.469.469,0,0,0,.75,16H5.12Z"/>
    <path id="Path_5" data-name="Path 5" d="M10.966,10.784,8.88,16h4.37a.469.469,0,0,0,.469-.469A5.464,5.464,0,0,0,10.966,10.784Z"/>
    <path id="Path_6" data-name="Path 6" d="M7,7.716a10.626,10.626,0,0,1-3.125-.479v.794a3.125,3.125,0,0,0,6.25,0V7.237A10.625,10.625,0,0,1,7,7.716Z"/>
    <path id="Path_7" data-name="Path 7" d="M10.793,3.594A3.864,3.864,0,0,0,10.1,2.157,3.941,3.941,0,0,0,8.875,1.109v.3a.469.469,0,0,1-.937,0V.469A.469.469,0,0,0,7.469,0H6.531a.469.469,0,0,0-.469.469v.938a.469.469,0,0,1-.937,0v-.3A3.941,3.941,0,0,0,3.9,2.157a3.864,3.864,0,0,0-.693,1.437Z"/>
  </g>
</svg>
