<svg width="16" height="16" viewBox="0 0 16 16" fill="none" xmlns="http://www.w3.org/2000/svg">
<path d="M14.7586 5.50571H10.4943V1.24138C10.4943 1.17736 10.4689 1.11597 10.4236 1.0707C10.3783 1.02544 10.3169 1 10.2529 1H5.74709C5.68307 1 5.62168 1.02544 5.57641 1.0707C5.53114 1.11597 5.50571 1.17736 5.50571 1.24138V5.50571H1.24138C1.17736 5.50571 1.11597 5.53114 1.0707 5.57641C1.02544 5.62168 1 5.68307 1 5.74709V10.2529C1 10.3169 1.02544 10.3783 1.0707 10.4236C1.11597 10.4689 1.17736 10.4943 1.24138 10.4943H5.50571V14.7586C5.50571 14.8226 5.53114 14.884 5.57641 14.9293C5.62168 14.9746 5.68307 15 5.74709 15H10.2529C10.3169 15 10.3783 14.9746 10.4236 14.9293C10.4689 14.884 10.4943 14.8226 10.4943 14.7586V10.4943H14.7586C14.8226 10.4943 14.884 10.4689 14.9293 10.4236C14.9746 10.3783 15 10.3169 15 10.2529V5.74709C15 5.68307 14.9746 5.62168 14.9293 5.57641C14.884 5.53114 14.8226 5.50571 14.7586 5.50571Z" fill="#1D1D1D"/>
</svg>
