<svg width="16" height="16" viewBox="0 0 16 16" fill="none" xmlns="http://www.w3.org/2000/svg">
<path d="M14.8795 7.6745L12.1795 4.5235C11.8945 4.1915 11.4785 4 11.041 4H10C9.4475 4 9 4.4475 9 5V9.5C9 9.776 8.776 10 8.5 10H1V11.5C1 12.0525 1.4475 12.5 2 12.5H2.5C2.5 13.603 3.397 14.5 4.5 14.5C5.603 14.5 6.5 13.603 6.5 12.5H9C9 13.603 9.897 14.5 11 14.5C12.103 14.5 13 13.603 13 12.5H14C14.5525 12.5 15 12.0525 15 11.5V8.0005C15 7.881 14.957 7.7655 14.8795 7.6745ZM4.5 13.5C3.9485 13.5 3.5 13.0515 3.5 12.5C3.5 11.9955 3.93 11.5 4.5 11.5C5.0675 11.5 5.5 11.9935 5.5 12.5C5.5 13.0515 5.0515 13.5 4.5 13.5ZM11 13.5C10.4485 13.5 10 13.0515 10 12.5C10 11.9955 10.43 11.5 11 11.5C11.5675 11.5 12 11.9935 12 12.5C12 13.0515 11.5515 13.5 11 13.5ZM13.2845 8H10.5V5.5H11.38C11.456 5.5 11.5275 5.5345 11.575 5.594L13.3655 7.832C13.4195 7.8995 13.3715 8 13.2845 8Z" fill="#1D1D1D"/>
<path d="M8 2.5V8.5C8 8.776 7.776 9 7.5 9H1.5C1.224 9 1 8.776 1 8.5V2.5C1 2.224 1.224 2 1.5 2H3V5.2495C3 5.4615 3.247 5.5775 3.41 5.4415L4.5 4.5L5.59 5.4415C5.753 5.577 6 5.4615 6 5.2495V2H7.5C7.776 2 8 2.224 8 2.5Z" fill="#1D1D1D"/>
</svg>
