<svg width="16" height="16" viewBox="0 0 16 16" fill="none" xmlns="http://www.w3.org/2000/svg">
<path fill-rule="evenodd" clip-rule="evenodd" d="M14.5281 4.2673C14.5214 4.5433 14.2927 4.76197 14.0167 4.75597C13.7407 4.7493 13.5221 4.52064 13.5281 4.24464L13.5554 3.04064L12.3521 3.0133C12.0761 3.00664 11.8574 2.77797 11.8634 2.50197C11.8701 2.22597 12.0987 2.0073 12.3747 2.0133L14.0787 2.05264C14.3547 2.05864 14.5734 2.2873 14.5667 2.5633L14.5281 4.2673Z" fill="#1D1D1D"/>
<path fill-rule="evenodd" clip-rule="evenodd" d="M3.88336 6.23067V14.3247C3.88336 14.79 3.5067 15.1667 3.04136 15.1667H1.67403C1.2087 15.1667 0.832031 14.79 0.832031 14.3247V6.23067C0.832031 5.766 1.2087 5.38867 1.67403 5.38867H3.04136C3.5067 5.38867 3.88336 5.766 3.88336 6.23067Z" fill="#1D1D1D"/>
<path fill-rule="evenodd" clip-rule="evenodd" d="M11.4048 10.3332V14.3245C11.4048 14.5479 11.3162 14.7619 11.1582 14.9199C11.0002 15.0779 10.7862 15.1665 10.5628 15.1665H9.19552C8.97218 15.1665 8.75818 15.0779 8.60018 14.9199C8.44218 14.7619 8.35352 14.5479 8.35352 14.3245V10.3332C8.35352 10.1099 8.44218 9.89588 8.60018 9.73788C8.75818 9.57988 8.97218 9.49121 9.19552 9.49121H10.5628C10.7862 9.49121 11.0002 9.57988 11.1582 9.73788C11.3162 9.89588 11.4048 10.1099 11.4048 10.3332Z" fill="#1D1D1D"/>
<path fill-rule="evenodd" clip-rule="evenodd" d="M7.64313 8.28194V14.3246C7.64313 14.7899 7.26646 15.1666 6.80113 15.1666H5.4338C4.96846 15.1666 4.5918 14.7899 4.5918 14.3246V8.28194C4.5918 8.05861 4.68046 7.84461 4.83846 7.68661C4.99646 7.52861 5.21046 7.43994 5.4338 7.43994H6.80113C7.26646 7.43994 7.64313 7.81728 7.64313 8.28194Z" fill="#1D1D1D"/>
<path fill-rule="evenodd" clip-rule="evenodd" d="M15.1646 8.28194V14.3246C15.1646 14.7899 14.7879 15.1666 14.3226 15.1666H12.9553C12.4899 15.1666 12.1133 14.7899 12.1133 14.3246V8.28194C12.1133 8.05861 12.2019 7.84461 12.3599 7.68661C12.5179 7.52861 12.7319 7.43994 12.9553 7.43994H14.3226C14.7879 7.43994 15.1646 7.81728 15.1646 8.28194Z" fill="#1D1D1D"/>
<path fill-rule="evenodd" clip-rule="evenodd" d="M1.63193 1.7333C1.4106 1.56797 1.36593 1.25397 1.53193 1.0333C1.69726 0.812635 2.0106 0.767968 2.23193 0.933301L6.2006 3.90997H8.08526C8.23926 3.90997 8.38393 3.98063 8.4786 4.1013L10.0033 6.04197L13.5366 2.35464C13.7273 2.1553 14.0439 2.14863 14.2433 2.33997C14.4426 2.53063 14.4493 2.8473 14.2586 3.04664L10.3266 7.1493C10.2266 7.25397 10.0859 7.30997 9.94126 7.30264C9.7966 7.29597 9.66193 7.22597 9.5726 7.11197L7.8426 4.90997H6.03393C5.92593 4.90997 5.8206 4.8753 5.73393 4.80997L1.63193 1.7333Z" fill="#1D1D1D"/>
</svg>
