<svg width="16" height="16" viewBox="0 0 16 16" fill="none" xmlns="http://www.w3.org/2000/svg">
<path d="M6.38848 0.000488281H2.75488V2.21624L6.38848 1.61064V0.000488281Z" fill="#1D1D1D"/>
<path d="M14.3879 15.0618V4.57154H8.46875V15.0618H7.53125V3.63404V2.37061L1.61213 3.35711V15.0618H0V15.9993H16V15.0618H14.3879ZM12.0732 5.91957H13.069V6.85707H12.0732V5.91957ZM12.0732 8.20514H13.069V9.14264H12.0732V8.20514ZM12.0732 10.4907H13.069V11.4282H12.0732V10.4907ZM12.0732 12.7762H13.069V13.7137H12.0732V12.7762ZM9.78766 5.91957H10.7834V6.85707H9.78766V5.91957ZM9.78766 8.20514H10.7834V9.14264H9.78766V8.20514ZM9.78766 10.4907H10.7834V11.4282H9.78766V10.4907ZM9.78766 12.7762H10.7834V13.7137H9.78766V12.7762ZM5.21656 3.63404H6.21234V4.57154H5.21656V3.63404ZM5.21656 5.91957H6.21234V6.85707H5.21656V5.91957ZM5.21656 8.20514H6.21234V9.14264H5.21656V8.20514ZM5.21656 10.4907H6.21234V11.4282H5.21656V10.4907ZM2.93103 5.91957H3.92681V6.85707H2.93103V5.91957ZM2.93103 8.20514H3.92681V9.14264H2.93103V8.20514ZM2.93103 10.4907H3.92681V11.4282H2.93103V10.4907ZM2.96016 12.7762H6.18322V15.0618H5.24572V13.7137H3.89766V15.0618H2.96016V12.7762Z" fill="#1D1D1D"/>
</svg>
