<svg width="16" height="16" viewBox="0 0 16 16" fill="none" xmlns="http://www.w3.org/2000/svg">
<path d="M15.5312 0.9375C15.7903 0.9375 16 0.727844 16 0.46875C16 0.209656 15.7903 0 15.5312 0H8C7.74091 0 7.53125 0.209656 7.53125 0.46875C7.53125 0.727844 7.74091 0.9375 8 0.9375H10.3438V3.78125H9.875C9.7505 3.78125 9.63147 3.83069 9.54359 3.91859L7.66859 5.79359C7.58069 5.88147 7.53125 6.0005 7.53125 6.125V8C7.53125 8.1245 7.58069 8.24353 7.66859 8.33141L8.9375 9.60034V8.27466L8.46875 7.80591V6.31909L10.0691 4.71875H13.4622L15.0625 6.31909V7.80591L14.5938 8.27466V9.60034L15.8627 8.33144C15.9506 8.24353 16 8.1245 16 8V6.125C16 6.0005 15.9506 5.88147 15.8627 5.79359L13.9877 3.91859C13.8998 3.83069 13.7807 3.78125 13.6562 3.78125H13.1875V0.9375H15.5312Z" fill="#1D1D1D"/>
<path d="M14.0938 12.25H1.90625C0.870719 12.25 0 13.0894 0 14.125C0 15.1605 0.870719 16 1.90625 16H14.0938C15.1293 16 16 15.1605 16 14.125C16 13.0894 15.1293 12.25 14.0938 12.25ZM2.375 14.5937C2.11606 14.5937 1.90625 14.3838 1.90625 14.1249C1.90625 13.8661 2.11606 13.6562 2.375 13.6562C2.63387 13.6562 2.84375 13.8661 2.84375 14.1249C2.84375 14.3838 2.63387 14.5937 2.375 14.5937ZM4.25 14.5937C3.99106 14.5937 3.78125 14.3838 3.78125 14.1249C3.78125 13.8661 3.99106 13.6562 4.25 13.6562C4.50887 13.6562 4.71875 13.8661 4.71875 14.1249C4.71875 14.3838 4.50887 14.5937 4.25 14.5937ZM6.125 14.5937C5.86606 14.5937 5.65625 14.3838 5.65625 14.1249C5.65625 13.8661 5.86606 13.6562 6.125 13.6562C6.38387 13.6562 6.59375 13.8661 6.59375 14.1249C6.59375 14.3838 6.38387 14.5937 6.125 14.5937ZM8 14.5937C7.74106 14.5937 7.53125 14.3838 7.53125 14.1249C7.53125 13.8661 7.74106 13.6562 8 13.6562C8.25887 13.6562 8.46875 13.8661 8.46875 14.1249C8.46875 14.3838 8.25887 14.5937 8 14.5937ZM9.875 14.5937C9.61606 14.5937 9.40625 14.3838 9.40625 14.1249C9.40625 13.8661 9.61606 13.6562 9.875 13.6562C10.1339 13.6562 10.3438 13.8661 10.3438 14.1249C10.3438 14.3838 10.1339 14.5937 9.875 14.5937ZM11.75 14.5937C11.4911 14.5937 11.2812 14.3838 11.2812 14.1249C11.2812 13.8661 11.4911 13.6562 11.75 13.6562C12.0089 13.6562 12.2188 13.8661 12.2188 14.1249C12.2188 14.3838 12.0089 14.5937 11.75 14.5937ZM13.625 14.5937C13.3661 14.5937 13.1562 14.3838 13.1562 14.1249C13.1562 13.8661 13.3661 13.6562 13.625 13.6562C13.8839 13.6562 14.0938 13.8661 14.0938 14.1249C14.0938 14.3838 13.8839 14.5937 13.625 14.5937Z" fill="#1D1D1D"/>
<path d="M5.65625 7.53125H2.84375C2.58466 7.53125 2.375 7.74091 2.375 8V11.3125H6.125V8C6.125 7.74091 5.91534 7.53125 5.65625 7.53125Z" fill="#1D1D1D"/>
<path d="M13.1875 7.53125H10.3438C10.0847 7.53125 9.875 7.74091 9.875 8V11.3125H13.6562V8C13.6562 7.74091 13.4466 7.53125 13.1875 7.53125Z" fill="#1D1D1D"/>
</svg>
