<svg width="16" height="16" viewBox="0 0 16 16" fill="none" xmlns="http://www.w3.org/2000/svg">
<g clip-path="url(#clip0_849_4927)">
<path d="M14.6667 15.3333C15.0349 15.3333 15.3333 15.0349 15.3333 14.6667C15.3333 14.2985 15.0349 14 14.6667 14C14.2985 14 14 14.2985 14 14.6667C14 15.0349 14.2985 15.3333 14.6667 15.3333Z" fill="#1D1D1D"/>
<path d="M12.0026 15.3333C12.3708 15.3333 12.6693 15.0349 12.6693 14.6667C12.6693 14.2985 12.3708 14 12.0026 14C11.6344 14 11.3359 14.2985 11.3359 14.6667C11.3359 15.0349 11.6344 15.3333 12.0026 15.3333Z" fill="#1D1D1D"/>
<path d="M13.3346 12.6667H2.66797C2.13754 12.6667 1.62883 12.456 1.25376 12.081C0.878682 11.7059 0.667969 11.1972 0.667969 10.6667V2.66675C0.667969 2.13632 0.878682 1.62761 1.25376 1.25253C1.62883 0.877462 2.13754 0.666748 2.66797 0.666748H13.3346C13.8651 0.666748 14.3738 0.877462 14.7488 1.25253C15.1239 1.62761 15.3346 2.13632 15.3346 2.66675V10.6667C15.3346 11.1972 15.1239 11.7059 14.7488 12.081C14.3738 12.456 13.8651 12.6667 13.3346 12.6667ZM2.66797 2.00008C2.49116 2.00008 2.32159 2.07032 2.19656 2.19534C2.07154 2.32037 2.0013 2.48994 2.0013 2.66675V10.6667C2.0013 10.8436 2.07154 11.0131 2.19656 11.1382C2.32159 11.2632 2.49116 11.3334 2.66797 11.3334H13.3346C13.5114 11.3334 13.681 11.2632 13.806 11.1382C13.9311 11.0131 14.0013 10.8436 14.0013 10.6667V2.66675C14.0013 2.48994 13.9311 2.32037 13.806 2.19534C13.681 2.07032 13.5114 2.00008 13.3346 2.00008H2.66797Z" fill="#1D1D1D"/>
<path d="M13.3359 1.3335H2.66927C2.31565 1.3335 1.97651 1.47397 1.72646 1.72402C1.47641 1.97407 1.33594 2.31321 1.33594 2.66683V10.6668C1.33594 11.0205 1.47641 11.3596 1.72646 11.6096C1.97651 11.8597 2.31565 12.0002 2.66927 12.0002H13.3359C13.6896 12.0002 14.0287 11.8597 14.2787 11.6096C14.5288 11.3596 14.6693 11.0205 14.6693 10.6668V2.66683C14.6693 2.31321 14.5288 1.97407 14.2787 1.72402C14.0287 1.47397 13.6896 1.3335 13.3359 1.3335ZM10.0493 7.3335L7.62927 8.66683C7.5181 8.72948 7.3925 8.76203 7.2649 8.76127C7.13729 8.76052 7.01209 8.72647 6.90167 8.66251C6.79125 8.59855 6.69943 8.50688 6.63529 8.39656C6.57115 8.28625 6.5369 8.1611 6.53594 8.0335V5.2735C6.53094 5.14308 6.56084 5.0137 6.62254 4.89869C6.68425 4.78369 6.77553 4.68724 6.88695 4.6193C6.99838 4.55135 7.12593 4.51438 7.25642 4.51218C7.38691 4.50999 7.51562 4.54267 7.62927 4.60683L10.0493 6.00016C10.1769 6.05866 10.2851 6.15258 10.3609 6.27076C10.4368 6.38894 10.4771 6.52641 10.4771 6.66683C10.4771 6.80725 10.4368 6.94472 10.3609 7.0629C10.2851 7.18108 10.1769 7.275 10.0493 7.3335Z" fill="#1D1D1D"/>
<path d="M9.33464 14H1.33464C0.966446 14 0.667969 14.2985 0.667969 14.6667C0.667969 15.0349 0.966446 15.3333 1.33464 15.3333H9.33464C9.70283 15.3333 10.0013 15.0349 10.0013 14.6667C10.0013 14.2985 9.70283 14 9.33464 14Z" fill="#1D1D1D"/>
</g>
<defs>
<clipPath id="clip0_849_4927">
<rect width="16" height="16" fill="white"/>
</clipPath>
</defs>
</svg>
