<svg width="10" height="16" viewBox="0 0 10 16" fill="none" xmlns="http://www.w3.org/2000/svg">
<path d="M9.158 0.237594C9.07469 0.090625 8.91903 0 8.75012 0H3.12512C2.90997 0 2.72275 0.1465 2.67056 0.355219L0.795559 7.88647C0.760309 8.02653 0.791903 8.17488 0.880716 8.28837C0.969528 8.40234 1.10593 8.46872 1.25012 8.46872H3.38606L0.811153 15.3664C0.728747 15.5862 0.821685 15.8329 1.02812 15.9441C1.2355 16.0553 1.49206 15.9958 1.62915 15.8068L9.12915 5.46303C9.23306 5.32066 9.24772 5.13206 9.16806 4.97459C9.08797 4.81759 8.92637 4.71872 8.75012 4.71872H6.76572L9.15203 0.709969C9.23903 0.564875 9.24131 0.384531 9.158 0.237594Z" fill="#1D1D1D"/>
</svg>
