<svg width="16" height="16" viewBox="0 0 16 16" fill="none" xmlns="http://www.w3.org/2000/svg">
<g clip-path="url(#clip0_849_4887)">
<path d="M13.4786 7.83034C14.7392 7.83034 15.7573 6.81216 15.7573 5.55155V5.28489C15.7573 5.18792 15.6846 5.09095 15.5634 5.09095H15.2967C14.4967 5.09095 13.7937 5.50307 13.3816 6.13337V5.35761L13.5028 5.2364C14.3998 4.36367 14.3998 2.90913 13.5028 2.0364L13.3089 1.84246C13.2361 1.76973 13.1149 1.76973 13.0422 1.84246L12.8482 2.0364C12.4119 2.47276 12.1937 3.03034 12.1937 3.6364C12.1937 4.24246 12.4361 4.80004 12.8482 5.2364L12.9695 5.35761V6.13337C12.5573 5.50307 11.8543 5.09095 11.0543 5.09095H10.7876C10.6907 5.09095 10.5937 5.16367 10.5937 5.28489V5.57579C10.5937 6.8364 11.6119 7.85458 12.8725 7.85458H12.9452V8.87276C12.5331 8.24246 11.8301 7.83034 11.0301 7.83034H10.7634C10.6664 7.83034 10.5695 7.90307 10.5695 8.02428V8.24246C10.5695 9.50307 11.5876 10.5212 12.8482 10.5212H12.921V11.5394C12.5089 10.9091 11.8058 10.497 11.0058 10.497H10.7392C10.6422 10.497 10.5452 10.5697 10.5452 10.6909V10.9576C10.5452 12.2182 11.5634 13.2364 12.824 13.2364H12.8967V14.2788C11.2725 13.697 9.64825 13.4061 8.02401 13.3819V11.6849H8.09673C9.35734 11.6849 10.3755 10.6667 10.3755 9.4061V9.13943C10.3755 9.04246 10.3028 8.94549 10.1816 8.94549H9.91492C9.11492 8.94549 8.41188 9.35761 7.99976 9.98792V8.96973H8.07249C9.3331 8.96973 10.3513 7.95155 10.3513 6.69095V6.42428C10.3513 6.32731 10.2786 6.23034 10.1573 6.23034H9.89067C9.09067 6.23034 8.38764 6.64246 7.97552 7.27276V6.25458H8.04825C9.30885 6.25458 10.327 5.2364 10.327 3.97579V3.70913C10.327 3.61216 10.2543 3.51519 10.1331 3.51519H9.86643C9.06643 3.51519 8.3634 3.92731 7.95128 4.55761V3.78186L8.07249 3.66064C8.96946 2.78792 8.96946 1.33337 8.07249 0.460643L7.87855 0.266704C7.80582 0.193976 7.68461 0.193976 7.61188 0.266704L7.68461 0.484885C6.78764 1.38186 6.78764 2.81216 7.68461 3.68489L7.80582 3.8061V4.6061C7.3937 3.97579 6.69067 3.56367 5.89067 3.56367H5.62401C5.52704 3.56367 5.43007 3.6364 5.43007 3.75761V4.02428C5.43007 5.28489 6.44825 6.30307 7.70885 6.30307H7.78158V7.32125C7.36946 6.69095 6.66643 6.27882 5.86643 6.27882H5.59976C5.50279 6.27882 5.40582 6.35155 5.40582 6.47276V6.73943C5.40582 8.00004 6.42401 9.01822 7.68461 9.01822H7.75734V10.0364C7.34522 9.4061 6.64219 8.99398 5.84219 8.99398H5.57552C5.47855 8.99398 5.38158 9.0667 5.38158 9.18792V9.45458C5.38158 10.7152 6.39976 11.7334 7.66037 11.7334H7.7331V13.4303C6.10885 13.4546 4.48461 13.7455 2.86037 14.3031V13.2606H2.9331C4.1937 13.2606 5.21188 12.2425 5.21188 10.9819V10.7152C5.21188 10.6182 5.13916 10.5212 5.01795 10.5212H4.75128C3.95128 10.5212 3.24825 10.9334 2.83613 11.5637V10.5455H2.90885C4.16946 10.5455 5.18764 9.52731 5.18764 8.2667V8.00004C5.18764 7.90307 5.11491 7.8061 4.9937 7.8061H4.72704C3.92704 7.8061 3.22401 8.21822 2.81188 8.84852V7.83034H2.88461C4.14522 7.83034 5.1634 6.81216 5.1634 5.55155V5.28489C5.1634 5.18792 5.09067 5.09095 4.96946 5.09095H4.70279C3.90279 5.09095 3.19976 5.50307 2.78764 6.13337V5.35761L2.90885 5.2364C3.80582 4.36367 3.80582 2.90913 2.90885 2.0364V1.84246C2.83613 1.76973 2.71491 1.76973 2.64219 1.84246L2.44825 2.0364C2.01188 2.47276 1.7937 3.03034 1.7937 3.6364C1.7937 4.24246 2.03613 4.80004 2.44825 5.2364L2.56946 5.35761V6.13337C2.15734 5.50307 1.45431 5.09095 0.654309 5.09095H0.436127C0.339157 5.09095 0.242188 5.16367 0.242188 5.28489V5.57579C0.242188 6.8364 1.26037 7.85458 2.52098 7.85458H2.5937V8.87276C2.18158 8.24246 1.47855 7.83034 0.678551 7.83034H0.436127C0.314915 7.8061 0.242188 7.87883 0.242188 8.00004V8.24246C0.242188 9.50307 1.26037 10.5212 2.52098 10.5212H2.5937V11.5394C2.18158 10.9091 1.47855 10.497 0.678551 10.497H0.436127C0.339157 10.497 0.242188 10.5697 0.242188 10.6909V10.9576C0.242188 12.2182 1.26037 13.2364 2.52098 13.2364H2.5937V14.4C1.84219 14.6909 1.09067 15.0303 0.339157 15.4425C0.242187 15.4909 0.217945 15.6122 0.26643 15.6849C0.314915 15.7819 0.436127 15.8061 0.508854 15.7576C5.43007 13.0667 10.4482 13.0667 15.4907 15.7576H15.5876C15.6604 15.7576 15.7089 15.7334 15.7573 15.6606C15.8058 15.5637 15.7816 15.4667 15.6846 15.4182C14.9331 15.0061 14.1816 14.6667 13.4301 14.4V13.2122H13.5028C14.7634 13.2122 15.7816 12.194 15.7816 10.9334V10.6667C15.7816 10.5697 15.7089 10.4728 15.5876 10.4728H15.321C14.521 10.4728 13.8179 10.8849 13.4058 11.5152V10.497H13.4786C14.7392 10.497 15.7573 9.47883 15.7573 8.21822V8.00004C15.7573 7.90307 15.6846 7.8061 15.5634 7.8061H15.2967C14.4967 7.8061 13.7937 8.21822 13.3816 8.84852V7.83034H13.4786Z" fill="#1D1D1D"/>
</g>
<defs>
<clipPath id="clip0_849_4887">
<rect width="16" height="16" fill="white"/>
</clipPath>
</defs>
</svg>
