<svg width="14" height="15" viewBox="0 0 14 15" fill="none" xmlns="http://www.w3.org/2000/svg">
<path d="M0.968952 5.86414C1.45161 6.61081 1.98372 7.32432 2.5617 7.99989H2.99395C2.93948 7.68769 2.86202 7.37993 2.7622 7.07914C2.38056 5.96332 1.71518 4.96599 0.831452 4.18514L1.16695 3.81464C2.11459 4.65283 2.82772 5.72326 3.2362 6.92064C3.3022 7.11739 3.35645 7.31914 3.4047 7.52289C3.4272 7.48189 3.45045 7.44139 3.4702 7.39789C4.03295 6.14789 3.75945 4.15739 2.56345 3.46689C2.27633 3.31869 1.96213 3.23026 1.63986 3.20692C1.31759 3.18359 0.99393 3.22585 0.688452 3.33114C0.549078 3.36648 0.418449 3.43008 0.304661 3.51798C0.190872 3.60588 0.0963499 3.71621 0.0269518 3.84214C-0.105798 4.17739 0.258702 4.76589 0.968952 5.86414Z" fill="#1D1D1D"/>
<path d="M6.73623 5.56977C6.71732 5.41892 6.67961 5.27102 6.62398 5.12952C6.23423 4.14052 5.09673 3.58927 4.41523 3.79227C4.19149 3.86773 3.99841 4.01403 3.86523 4.20902C4.32568 5.21208 4.37786 6.35493 4.01073 7.39577C4.02498 7.37827 4.04198 7.36277 4.05598 7.34577C4.58708 6.65898 4.9153 5.83722 5.00348 4.97352L5.50048 5.02802C5.40353 5.98543 5.03876 6.89615 4.44798 7.65577C4.35273 7.77627 4.24798 7.88952 4.14098 8.00077H5.29398L5.31473 7.99102C5.18362 7.48153 5.25962 6.94085 5.5261 6.48725C5.79259 6.03364 6.22787 5.70403 6.73673 5.57052L6.73623 5.56977Z" fill="#1D1D1D"/>
<path d="M11.301 7.99993H13.8048C13.6456 7.76923 13.4226 7.58992 13.163 7.48393C12.9936 7.42679 12.8167 7.39479 12.638 7.38893C12.4085 7.37193 12.1483 7.35243 12.0278 7.11168C11.9028 6.85918 12.0735 6.64643 12.2105 6.47518C12.3498 6.32388 12.4516 6.142 12.5078 5.94418C12.6313 5.40543 12.6328 4.50118 12.1288 4.21768C12.0117 4.1579 11.8837 4.12231 11.7525 4.11304C11.6214 4.10376 11.4897 4.12098 11.3653 4.16368C10.9901 4.27634 10.6715 4.52689 10.4735 4.86493C10.2788 5.24143 10.3925 5.65893 10.5025 6.06218C10.6125 6.46543 10.7275 6.88943 10.4245 7.18043C10.1168 7.47668 9.6673 7.35543 9.23205 7.23668C9.26885 7.4916 9.25302 7.75136 9.18555 7.99993H10.7928C10.8553 7.64593 10.9258 7.29143 11.0075 6.94268C11.1475 6.34668 11.318 5.75018 11.5143 5.16993L11.9878 5.32993C11.7968 5.89518 11.6308 6.47643 11.4945 7.05718C11.4215 7.36818 11.3583 7.68418 11.301 7.99993Z" fill="#1D1D1D"/>
<path d="M8.6635 7.99996C8.70936 7.87062 8.73672 7.73545 8.74475 7.59846L8.329 7.73696L8.171 7.26196L8.6915 7.08846C8.61336 6.81665 8.46009 6.57241 8.24931 6.38383C8.03853 6.19525 7.7788 6.06999 7.5 6.02246V6.49996H7V6.02246C6.76083 6.06334 6.53512 6.16153 6.34217 6.30864C6.14921 6.45575 5.99475 6.6474 5.892 6.86721L6.329 7.01296L6.171 7.48796L5.75775 7.34996C5.75268 7.3998 5.75009 7.44986 5.75 7.49996C5.74967 7.67038 5.77893 7.83956 5.8365 7.99996H8.6635ZM7 6.99996H7.5V7.49996H7V6.99996Z" fill="#1D1D1D"/>
<path d="M1.91383 8.00004C1.63416 7.65938 1.36491 7.30804 1.10608 6.94604C0.877588 7.02211 0.656438 7.11867 0.445331 7.23454C0.273891 7.30909 0.134393 7.44194 0.0515809 7.60954C0.00058753 7.73308 -0.0129745 7.86887 0.0125809 8.00004H1.91383Z" fill="#1D1D1D"/>
<path d="M0.00585938 8.5C0.0725288 10.2451 0.81215 11.8966 2.06968 13.1084C3.32721 14.3201 5.00501 14.998 6.75136 15H7.25136C8.99771 14.998 10.6755 14.3201 11.933 13.1084C13.1906 11.8966 13.9302 10.2451 13.9969 8.5H0.00585938ZM4.14261 13.725C2.95999 13.1542 1.96827 12.2527 1.28761 11.1298L1.71511 10.8702C2.34578 11.9107 3.26452 12.746 4.36011 13.275L4.14261 13.725ZM5.25136 14H4.75136V13.5H5.25136V14Z" fill="#1D1D1D"/>
<path d="M10.75 2V1.5H9.75C9.21957 1.5 8.71086 1.71071 8.33579 2.08579C7.96071 2.46086 7.75 2.96957 7.75 3.5V4H8.75C9.28043 4 9.78914 3.78929 10.1642 3.41421C10.5393 3.03914 10.75 2.53043 10.75 2Z" fill="#1D1D1D"/>
<path d="M6 2.5C6.27614 2.5 6.5 2.27614 6.5 2C6.5 1.72386 6.27614 1.5 6 1.5C5.72386 1.5 5.5 1.72386 5.5 2C5.5 2.27614 5.72386 2.5 6 2.5Z" fill="#1D1D1D"/>
<path d="M2.75 1.75C3.02614 1.75 3.25 1.52614 3.25 1.25C3.25 0.973858 3.02614 0.75 2.75 0.75C2.47386 0.75 2.25 0.973858 2.25 1.25C2.25 1.52614 2.47386 1.75 2.75 1.75Z" fill="#1D1D1D"/>
</svg>
