<svg width="16" height="16" viewBox="0 0 16 16" fill="none" xmlns="http://www.w3.org/2000/svg">
<path d="M1.22188 5.32764H0.46875C0.209875 5.32764 0 5.53751 0 5.79639C0 6.05526 0.209875 6.26514 0.46875 6.26514H1.22188C1.84278 6.24226 1.843 5.35061 1.22188 5.32764Z" fill="#1D1D1D"/>
<path d="M15.5324 5.32764H14.7793C14.5204 5.32764 14.3105 5.53751 14.3105 5.79639C14.3105 6.05526 14.5204 6.26514 14.7793 6.26514H15.5324C16.1534 6.24226 16.1535 5.35061 15.5324 5.32764Z" fill="#1D1D1D"/>
<path d="M2.87484 1.33485C3.33003 1.75772 3.96078 1.12741 3.53775 0.671939L3.00528 0.139471C2.82225 -0.0435605 2.52544 -0.0435605 2.34237 0.139471C2.15931 0.322502 2.15931 0.619314 2.34237 0.802377L2.87484 1.33485Z" fill="#1D1D1D"/>
<path d="M13.1248 10.258C12.6696 9.83514 12.0389 10.4655 12.4619 10.9209L12.9944 11.4534C13.1774 11.6364 13.4741 11.6365 13.6573 11.4534C13.8403 11.2703 13.8403 10.9735 13.6573 10.7905L13.1248 10.258Z" fill="#1D1D1D"/>
<path d="M2.87484 10.258L2.34237 10.7905C2.15931 10.9735 2.15931 11.2703 2.34237 11.4534C2.52538 11.6364 2.82216 11.6365 3.00528 11.4534L3.53775 10.9209C3.96066 10.4657 3.33025 9.83504 2.87484 10.258Z" fill="#1D1D1D"/>
<path d="M12.994 0.13959L12.4615 0.672059C12.2785 0.85509 12.2785 1.1519 12.4615 1.33497C12.6445 1.51797 12.9413 1.51809 13.1244 1.33497L13.6569 0.802496C14.0798 0.347278 13.4494 -0.283347 12.994 0.13959Z" fill="#1D1D1D"/>
<path d="M10.2013 6.26533L9.31721 7.14938C9.81006 8.10268 9.07677 9.29229 7.99868 9.27789C7.18651 9.27789 6.52575 8.61716 6.52575 7.80496C6.51144 6.72697 7.70099 5.99352 8.65429 6.48646L9.67562 5.4651C9.7635 5.37719 9.88275 5.32779 10.0071 5.32779H13.2161C12.4897 -0.99048 3.50539 -0.985856 2.78125 5.32779H5.79618L6.68022 4.44374C6.18737 3.49047 6.92067 2.30083 7.99875 2.31523C8.81092 2.31523 9.47168 2.976 9.47168 3.78817C9.48599 4.86615 8.29644 5.5996 7.34314 5.10663L6.32181 6.12799C6.23394 6.2159 6.11468 6.2653 5.99037 6.2653H2.78159C2.89975 7.57479 3.50904 8.79635 4.49478 9.67177C5.0316 10.168 5.37983 10.8348 5.48658 11.5506C5.48774 11.5504 10.5091 11.5504 10.5109 11.5506C10.6175 10.8349 10.9658 10.1681 11.5027 9.67177C12.4884 8.79638 13.0977 7.57479 13.2159 6.2653H10.2013V6.26533Z" fill="#1D1D1D"/>
<path d="M5.52344 13.0235C5.52344 14.2291 6.38936 15.2357 7.53182 15.4555C7.48522 16.1818 8.51612 16.1814 8.46933 15.4555C9.61179 15.2357 10.4777 14.2291 10.4777 13.0235V12.488H5.52344V13.0235Z" fill="#1D1D1D"/>
<path d="M8.53613 3.78812C8.53613 3.4929 8.29591 3.25269 8.00069 3.25269C7.29134 3.27962 7.29153 4.29672 8.00069 4.32356C8.29591 4.32353 8.53613 4.08334 8.53613 3.78812Z" fill="#1D1D1D"/>
<path d="M7.46484 7.80494C7.46484 8.10016 7.70506 8.34037 8.00028 8.34037C8.70963 8.31344 8.70944 7.29634 8.00028 7.26953C7.70506 7.26953 7.46484 7.50972 7.46484 7.80494Z" fill="#1D1D1D"/>
</svg>
