<svg width="16" height="16" viewBox="0 0 16 16" fill="none" xmlns="http://www.w3.org/2000/svg">
<g clip-path="url(#clip0_849_4915)">
<path d="M11.6814 8.30988H8.93134C8.50402 8.30988 8.11211 8.12065 7.84989 7.80518L7.24023 8.83557H8.4893C9.37614 8.83557 10.0415 9.64387 9.87339 10.5132L9.80509 10.866C9.97145 10.8769 10.1387 10.8823 10.3063 10.8823C11.4257 10.8823 13.025 10.4283 14.0376 9.96026L12.7628 7.80518C12.5006 8.12065 12.1087 8.30988 11.6814 8.30988Z" fill="#1D1D1D"/>
<path d="M9.62754 11.7953L9.42578 12.837C9.71682 12.8702 10.0113 12.8871 10.3086 12.8871C11.7767 12.8871 13.7591 12.1603 14.9123 11.4351L14.5204 10.7725C13.428 11.2931 11.6357 11.822 10.3086 11.822C10.0805 11.822 9.85341 11.8129 9.62754 11.7953Z" fill="#1D1D1D"/>
<path d="M15.9297 13.1577L15.3893 12.2441C14.0929 13.0524 11.9544 13.8272 10.3072 13.8272C9.9497 13.8272 9.59537 13.8055 9.24543 13.7623C8.83773 15.8682 8.86796 15.7179 8.85352 15.773C11.5922 16.2409 14.3284 15.3088 15.8598 13.7401C16.0083 13.5952 16.0501 13.351 15.9297 13.1577Z" fill="#1D1D1D"/>
<path d="M6.85768 2.9652C6.8689 3.05483 6.77078 2.7891 8.49679 7.07549C8.56822 7.25344 8.74084 7.36998 8.93257 7.36998H11.6826C11.8743 7.36998 12.0469 7.25344 12.1184 7.07549C13.7195 3.09932 13.7277 3.07933 13.729 3.0761C13.7719 2.96564 13.7707 2.84966 13.7362 2.75185C13.6567 2.50608 13.2419 2.16184 12.9774 2.01657V0.575151C12.9774 0.315752 12.7672 0.105225 12.5075 0.105225C12.2481 0.105225 12.0375 0.315752 12.0375 0.575151V1.75686C11.3441 1.73255 10.709 2.04276 10.3076 2.54446C9.90312 2.03891 9.26621 1.73274 8.57761 1.75686V0.575151C8.57761 0.315752 8.36709 0.105225 8.10769 0.105225C7.84797 0.105225 7.63776 0.315752 7.63776 0.575151V2.01657C7.35007 2.17459 6.95317 2.52237 6.87899 2.75185C6.85446 2.82134 6.84832 2.89953 6.85768 2.9652Z" fill="#1D1D1D"/>
<path d="M0.0086805 10.3346L1.01119 15.5141C1.05411 15.735 1.24741 15.8948 1.47266 15.8948H2.28313C2.27912 14.933 2.26101 17.1233 2.28375 9.77539H0.470149C0.175129 9.77539 -0.0473661 10.0445 0.0086805 10.3346Z" fill="#1D1D1D"/>
<path d="M3.22362 15.8947H5.73772L5.7465 13.8896H3.21484L3.22362 15.8947Z" fill="#1D1D1D"/>
<path d="M3.21484 12.9499H5.74744L5.73741 9.77539H3.22487L3.21484 12.9499Z" fill="#1D1D1D"/>
<path d="M8.48938 9.77539H6.67578C6.69912 17.3104 6.68089 14.8104 6.67641 15.8948H7.48687C7.71213 15.8948 7.90542 15.735 7.94834 15.5141L8.95085 10.3346C9.00681 10.045 8.78484 9.77539 8.48938 9.77539Z" fill="#1D1D1D"/>
<path d="M6.04197 7.58121C4.65387 6.19443 2.27344 7.18898 2.27344 9.14265L2.28472 9.77549H3.22488L3.21329 9.14265C3.21329 8.44356 3.78203 7.87479 4.48115 7.87479C5.18181 7.87479 5.74902 8.44171 5.74902 9.14265L5.73742 9.77549H6.67759C6.68802 9.19055 6.80554 8.34472 6.04197 7.58121Z" fill="#1D1D1D"/>
</g>
<defs>
<clipPath id="clip0_849_4915">
<rect width="16" height="16" fill="white"/>
</clipPath>
</defs>
</svg>
