<svg width="16" height="16" viewBox="0 0 16 16" fill="none" xmlns="http://www.w3.org/2000/svg">
<path d="M12.475 10.7266L10.1417 12.5599C9.81701 12.8173 9.33301 12.5846 9.33301 12.1666V10.9999H3.99967C3.63101 10.9999 3.33301 10.7013 3.33301 10.3333C3.33301 9.96525 3.63101 9.66658 3.99967 9.66658H9.33301V8.49992C9.33301 8.08125 9.81834 7.84925 10.1417 8.10658L12.475 9.93992C12.5963 10.0346 12.6663 10.1799 12.6663 10.3333C12.6663 10.4866 12.5963 10.6319 12.475 10.7266Z" fill="#1D1D1D"/>
<path d="M11.9997 6.33341H6.66634V7.50008C6.66634 7.91808 6.18234 8.15075 5.85767 7.89341L3.52434 6.06008C3.40301 5.96541 3.33301 5.82008 3.33301 5.66675C3.33301 5.51341 3.40301 5.36808 3.52434 5.27341L5.85767 3.44008C6.18101 3.18275 6.66634 3.41475 6.66634 3.83341V5.00008H11.9997C12.3683 5.00008 12.6663 5.29875 12.6663 5.66675C12.6663 6.03475 12.3683 6.33341 11.9997 6.33341Z" fill="#1D1D1D"/>
</svg>
