<svg width="16" height="14" viewBox="0 0 16 14" fill="none" xmlns="http://www.w3.org/2000/svg">
<path d="M15.3124 5.29985C15.2042 5.0605 15.0838 4.82686 14.9517 4.59985L13.2497 9.22319C13.1848 9.39592 13.0904 9.55608 12.9707 9.69652C13.4276 9.6513 13.8678 9.50116 14.2571 9.25783C14.6464 9.01449 14.9742 8.68453 15.215 8.29366C15.4559 7.9028 15.6031 7.46159 15.6454 7.00445C15.6877 6.54731 15.6238 6.08658 15.4587 5.65819C15.4134 5.53619 15.3647 5.41752 15.3124 5.29985Z" fill="#1D1D1D"/>
<path d="M5.54414 1.13311C4.55102 1.48662 3.63944 2.03688 2.86396 2.75096C2.08849 3.46503 1.46506 4.32823 1.03101 5.28889C0.59696 6.24955 0.361205 7.28791 0.33786 8.34182C0.314514 9.39572 0.504057 10.4435 0.895142 11.4224C0.905476 11.4434 0.912476 11.4641 0.922809 11.4851C1.13058 11.9813 1.46885 12.4119 1.9017 12.7313C2.33454 13.0507 2.8458 13.2469 3.38119 13.299C3.91657 13.3512 4.45609 13.2574 4.94244 13.0276C5.4288 12.7978 5.84383 12.4405 6.14348 11.9938C6.77018 11.0497 7.66986 10.3193 8.72248 9.89978C8.75581 9.88644 8.78914 9.87644 8.82248 9.86411C8.94099 9.5907 9.11734 9.34623 9.33941 9.14753C9.56147 8.94883 9.82397 8.80062 10.1088 8.71311C10.1019 8.46207 10.1533 8.21286 10.2591 7.98511L12.8925 2.28277C11.8581 1.49866 10.6455 0.983228 9.36308 0.782595C8.0807 0.581963 6.76858 0.702393 5.54414 1.13311ZM3.50081 9.83311C3.2371 9.83311 2.97931 9.75491 2.76005 9.6084C2.54078 9.46189 2.36989 9.25365 2.26897 9.01002C2.16805 8.76639 2.14165 8.4983 2.1931 8.23965C2.24454 7.98101 2.37153 7.74344 2.558 7.55697C2.74447 7.3705 2.98205 7.24351 3.24069 7.19206C3.49933 7.14061 3.76742 7.16702 4.01105 7.26794C4.25469 7.36885 4.46293 7.53975 4.60944 7.75902C4.75594 7.97828 4.83414 8.23607 4.83414 8.49977C4.83414 8.8534 4.69367 9.19254 4.44362 9.44258C4.19357 9.69263 3.85443 9.83311 3.50081 9.83311ZM5.16748 5.99977C4.90377 5.99977 4.64598 5.92158 4.42672 5.77507C4.20745 5.62856 4.03655 5.42032 3.93564 5.17669C3.83472 4.93305 3.80831 4.66496 3.85976 4.40632C3.91121 4.14768 4.0382 3.9101 4.22467 3.72363C4.41114 3.53716 4.64871 3.41017 4.90736 3.35873C5.166 3.30728 5.43408 3.33368 5.67772 3.4346C5.92135 3.53552 6.12959 3.70642 6.2761 3.92568C6.42261 4.14495 6.50081 4.40273 6.50081 4.66644C6.50081 5.02006 6.36033 5.3592 6.11028 5.60925C5.86024 5.8593 5.5211 5.99977 5.16748 5.99977ZM9.16748 4.83311C8.90377 4.83311 8.64598 4.75491 8.42672 4.6084C8.20745 4.46189 8.03655 4.25365 7.93564 4.01002C7.83472 3.76638 7.80831 3.4983 7.85976 3.23965C7.91121 2.98101 8.0382 2.74344 8.22467 2.55697C8.41114 2.3705 8.64871 2.24351 8.90736 2.19206C9.166 2.14061 9.43408 2.16702 9.67772 2.26794C9.92136 2.36885 10.1296 2.53975 10.2761 2.75901C10.4226 2.97828 10.5008 3.23607 10.5008 3.49977C10.5008 3.8534 10.3603 4.19253 10.1103 4.44258C9.86024 4.69263 9.5211 4.83311 9.16748 4.83311Z" fill="#1D1D1D"/>
<path d="M15.1593 0.383554C15.0114 0.322125 14.8455 0.320376 14.6963 0.378673C14.5471 0.436971 14.4264 0.550782 14.3593 0.69622L10.8646 8.26455C10.7842 8.43865 10.7581 8.63298 10.79 8.82212C10.8218 9.01125 10.91 9.18637 11.043 9.32455C10.7181 9.24836 10.3768 9.29001 10.0797 9.44208C9.78274 9.59416 9.54939 9.84677 9.42131 10.1549C8.88165 11.4582 9.73531 12.0299 9.19531 13.3332C9.81092 13.2644 10.3973 13.0339 10.895 12.6651C11.3927 12.2962 11.7838 11.8022 12.0286 11.2332C12.1439 10.953 12.1657 10.6431 12.0906 10.3496C12.0155 10.0561 11.8476 9.79464 11.612 9.60422C11.8251 9.63169 12.0412 9.5861 12.2251 9.47488C12.409 9.36367 12.5497 9.1934 12.6243 8.99189L15.5043 1.16822C15.559 1.01817 15.5536 0.852808 15.4894 0.706613C15.4251 0.560419 15.3069 0.444686 15.1593 0.383554Z" fill="#1D1D1D"/>
</svg>
