<svg width="16" height="14" viewBox="0 0 16 14" fill="none" xmlns="http://www.w3.org/2000/svg">
<path d="M9.02704 10.0921C8.74227 10.2667 8.37757 10.3629 8.00011 10.3629C7.62266 10.3629 7.25796 10.2668 6.97319 10.0921L2.32394 7.24066C2.32394 7.24066 1.9043 6.98344 1.9043 7.56614C1.9043 8.22784 1.9043 10.213 1.9043 10.213C1.9043 10.2394 1.9043 10.3723 1.9043 10.4135C1.9043 11.9134 4.63344 13.5304 7.99999 13.5304C11.3665 13.5304 14.0957 11.9135 14.0957 10.4135C14.0957 10.3723 14.0957 10.2394 14.0957 10.213C14.0957 10.213 14.0957 8.10745 14.0957 7.4056C14.0957 6.93788 13.7974 7.16643 13.7974 7.16643L9.02704 10.0921Z" fill="#1D1D1D"/>
<path d="M15.7321 4.97249C16.0893 4.75341 16.0893 4.39488 15.7321 4.17576L8.64951 0.63404C8.29227 0.414956 7.70769 0.414956 7.35045 0.63404L0.26793 4.17576C-0.08931 4.39484 -0.08931 4.75337 0.26793 4.97249L7.35045 9.31628C7.70769 9.53536 8.29227 9.53536 8.64951 9.31628" fill="#1D1D1D"/>
<path d="M15.4392 11.411C15.4392 10.2117 15.4392 6.61368 15.4392 6.61368C15.4392 6.61368 15.4425 6.38645 15.3077 6.46149C15.1995 6.52168 14.9344 6.66946 14.841 6.75071C14.7332 6.84443 14.7575 7.05481 14.7575 7.05481C14.7575 7.05481 14.7575 10.322 14.7575 11.411C14.7575 11.4729 14.7043 11.5024 14.679 11.5173C14.4342 11.6612 14.2695 11.9269 14.2695 12.2315C14.2695 12.6892 14.6406 13.0603 15.0983 13.0603C15.5561 13.0603 15.9271 12.6892 15.9271 12.2315C15.9271 11.9258 15.7613 11.6592 15.5149 11.5157C15.4904 11.5014 15.4392 11.4728 15.4392 11.411Z" fill="#1D1D1D"/>
</svg>
