<svg width="40" height="40" viewBox="0 0 40 40" fill="none" xmlns="http://www.w3.org/2000/svg">
<path d="M20.267 18.1161C20.084 18.0994 19.8999 18.0994 19.717 18.1161C17.7774 18.044 15.9436 17.2136 14.6099 15.8035C13.2762 14.3934 12.5492 12.5162 12.5853 10.5757C12.6213 8.63508 13.4175 6.78616 14.8026 5.42653C16.1877 4.0669 18.0511 3.30518 19.992 3.30518C21.9329 3.30518 23.7963 4.0669 25.1814 5.42653C26.5665 6.78616 27.3627 8.63508 27.3987 10.5757C27.4347 12.5162 26.7077 14.3934 25.3741 15.8035C24.0404 17.2136 22.2066 18.044 20.267 18.1161Z" stroke="#545AE8" stroke-width="1.5" stroke-linecap="round" stroke-linejoin="round"/>
<path d="M11.933 24.267C7.89995 26.967 7.89995 31.367 11.933 34.05C16.516 37.117 24.033 37.117 28.616 34.05C32.649 31.35 32.649 26.95 28.616 24.267C24.05 21.217 16.533 21.217 11.933 24.267Z" stroke="#545AE8" stroke-width="1.5" stroke-linecap="round" stroke-linejoin="round"/>
</svg>
