<svg width="83" height="60" viewBox="0 0 83 60" fill="none" xmlns="http://www.w3.org/2000/svg">
<path opacity="0.5" d="M63.918 59.024C62.4474 59.0241 61.0058 58.6146 59.7548 57.8415C58.5038 57.0685 57.4928 55.9623 56.835 54.647L47.219 35.414V3.014C47.2187 2.61837 47.2964 2.22657 47.4476 1.86097C47.5988 1.49538 47.8205 1.16314 48.1001 0.883255C48.3797 0.603366 48.7118 0.381304 49.0772 0.229753C49.4426 0.0782022 49.8344 0.000131429 50.23 1.66128e-07H79.621C80.0165 1.66128e-07 80.4082 0.0779077 80.7736 0.229275C81.1391 0.380642 81.4711 0.602505 81.7508 0.882195C82.0305 1.16188 82.2524 1.49393 82.4037 1.85936C82.5551 2.22479 82.633 2.61646 82.633 3.012V32.4C82.633 33.1988 82.3157 33.9649 81.7508 34.5298C81.186 35.0947 80.4198 35.412 79.621 35.412H64.921L71 47.563C71.6038 48.7703 71.8889 50.1119 71.8283 51.4603C71.7677 52.8088 71.3635 54.1194 70.6539 55.2677C69.9444 56.416 68.9531 57.3639 67.7742 58.0213C66.5952 58.6787 65.2678 59.0239 63.918 59.024ZM16.699 59.024C15.2284 59.0241 13.7868 58.6146 12.5358 57.8415C11.2848 57.0685 10.2738 55.9623 9.616 54.647L6.64071e-07 35.414V3.014C-0.000262091 2.61829 0.0774518 2.22641 0.228701 1.86074C0.379951 1.49508 0.601771 1.1628 0.881488 0.882901C1.1612 0.602999 1.49333 0.380958 1.8589 0.229466C2.22446 0.0779739 2.61629 7.8892e-08 3.012 1.66128e-07H32.4C32.7956 -0.000131233 33.1873 0.0776868 33.5528 0.229007C33.9183 0.380328 34.2504 0.602185 34.5301 0.881901C34.8098 1.16162 35.0317 1.49371 35.183 1.8592C35.3343 2.22469 35.4121 2.61642 35.412 3.012V32.4C35.4123 32.7957 35.3345 33.1876 35.1833 33.5533C35.0321 33.9189 34.8102 34.2512 34.5305 34.5311C34.2508 34.811 33.9187 35.033 33.5531 35.1845C33.1875 35.336 32.7957 35.414 32.4 35.414H17.7L23.775 47.563C24.3785 48.7698 24.6636 50.1107 24.6034 51.4586C24.5431 52.8065 24.1395 54.1166 23.4308 55.2647C22.722 56.4128 21.7317 57.3608 20.5537 58.0187C19.3758 58.6767 18.0492 59.0227 16.7 59.024H16.699Z" fill="#545AE8"/>
</svg>
