<svg width="72" height="75" viewBox="0 0 72 75" fill="none" xmlns="http://www.w3.org/2000/svg">
<path d="M1.68382 65.6794C1.33582 65.3324 1.76582 64.7434 1.89482 64.2694C4.16682 55.9214 6.51686 32.6794 13.0859 9.93941C13.2876 8.85386 13.9088 7.89143 14.8149 7.26041C15.6517 6.91767 16.5745 6.8446 17.4548 7.05141C31.5206 8.91643 45.3014 12.5155 58.4828 17.7664C58.9501 17.9547 59.332 18.3081 59.556 18.7593C59.7799 19.2106 59.8304 19.7284 59.6979 20.2144C54.9439 37.6864 49.8948 55.0744 44.5508 72.3784C44.3912 72.8437 44.0665 73.2342 43.6382 73.4761C43.2098 73.7179 42.7077 73.7941 42.2268 73.6904C28.6838 71.5134 2.34982 66.3464 1.68382 65.6794Z" stroke="#DDDDDD" stroke-width="2" stroke-miterlimit="10"/>
<path d="M9.24805 53.1514C19.67 55.846 30.1897 58.1127 40.807 59.9514" stroke="#DDDDDD" stroke-width="2" stroke-miterlimit="10"/>
<path d="M12.3691 41.1885C23.6691 43.9445 32.3691 46.1405 42.9321 48.5935" stroke="#DDDDDD" stroke-width="2" stroke-miterlimit="10"/>
<path d="M15.4648 31.1013L47.9888 38.0463" stroke="#DDDDDD" stroke-width="2" stroke-miterlimit="10"/>
<path d="M18.5156 19.6624C28.4696 21.6294 40.7886 24.7764 50.7426 26.7444" stroke="#DDDDDD" stroke-width="2" stroke-miterlimit="10"/>
<path d="M22.2988 7.8354C22.6988 6.5594 23.1112 5.28206 23.5358 4.0034C23.7579 2.92601 24.3745 1.9705 25.2648 1.3244C26.1016 0.981842 27.0244 0.908441 27.9048 1.1144C41.9709 2.98023 55.7519 6.57958 68.9338 11.8304C69.4008 12.0191 69.7823 12.3725 70.006 12.8237C70.2298 13.2749 70.2802 13.7925 70.1478 14.2784C65.3972 31.7504 60.3482 49.1384 55.0009 66.4424C54.8553 66.9172 54.5331 67.318 54.1006 67.5622C53.6682 67.8063 53.1586 67.8751 52.6769 67.7544C51.0099 67.3354 49.1268 66.8674 47.1038 66.3664" stroke="#DDDDDD" stroke-width="2" stroke-miterlimit="10"/>
<path d="M1.62891 66.0064C2.20491 61.3914 6.84894 33.5134 9.84894 21.6794" stroke="#DDDDDD" stroke-miterlimit="10"/>
<path d="M42.1822 73.7395C37.9682 73.1585 12.5282 68.5815 1.74219 65.6985" stroke="#DDDDDD" stroke-width="0.915" stroke-miterlimit="10"/>
</svg>
