<svg width="21" height="20" viewBox="0 0 21 20" fill="none" xmlns="http://www.w3.org/2000/svg">
<path d="M12.02 13.5753C11.7712 13.5753 11.5326 13.6741 11.3567 13.85C11.1808 14.026 11.0819 14.2646 11.0819 14.5134V16.7988C11.0816 17.15 10.942 17.4868 10.6936 17.7353C10.4453 17.9837 10.1085 18.1234 9.75727 18.1238H3.20083C2.84957 18.1234 2.51282 17.9837 2.26447 17.7353C2.01613 17.4868 1.87648 17.15 1.87617 16.7988V3.20122C1.87648 2.84996 2.01613 2.51317 2.26447 2.26475C2.51282 2.01633 2.84957 1.87659 3.20083 1.87617H9.75727C10.1085 1.87659 10.4453 2.01633 10.6936 2.26475C10.942 2.51317 11.0816 2.84996 11.0819 3.20122V5.17667C11.0819 5.42547 11.1808 5.66407 11.3567 5.84C11.5326 6.01593 11.7712 6.11476 12.02 6.11476C12.2688 6.11476 12.5074 6.01593 12.6833 5.84C12.8593 5.66407 12.9581 5.42547 12.9581 5.17667V3.20122C12.9571 2.35259 12.6195 1.53901 12.0195 0.938896C11.4194 0.338786 10.6059 0.00113778 9.75727 0H3.20083C2.3522 0.00113778 1.53866 0.338786 0.938619 0.938896C0.338583 1.53901 0.00103415 2.35259 0 3.20122V16.7988C0.00103415 17.6474 0.338583 18.461 0.938619 19.0611C1.53866 19.6612 2.3522 19.9989 3.20083 20H9.75727C10.6059 19.9989 11.4194 19.6612 12.0195 19.0611C12.6195 18.461 12.9571 17.6474 12.9581 16.7988V14.5134C12.9581 14.2646 12.8593 14.026 12.6833 13.85C12.5074 13.6741 12.2688 13.5753 12.02 13.5753Z" fill="#708090"/>
<path d="M19.7229 9.3168L16.3845 5.98073C16.2108 5.80711 15.976 5.70851 15.7305 5.7061C15.4849 5.70369 15.2482 5.79766 15.0712 5.96783C14.692 6.33251 14.701 6.95008 15.0731 7.32219L16.8113 9.06156H8.68125C8.43245 9.06156 8.19385 9.16039 8.01792 9.33632C7.842 9.51224 7.74316 9.75085 7.74316 9.99964C7.74316 10.2484 7.842 10.487 8.01792 10.663C8.19385 10.8389 8.43245 10.9377 8.68125 10.9377H16.8113L15.0563 12.6927C14.8804 12.8687 14.7815 13.1073 14.7814 13.3561C14.7814 13.6049 14.8802 13.8436 15.0561 14.0195C15.2321 14.1955 15.4707 14.2944 15.7195 14.2944C15.9683 14.2945 16.207 14.1957 16.3829 14.0197L19.7229 10.6813C19.8126 10.5918 19.8838 10.4854 19.9324 10.3684C19.9809 10.2513 20.0059 10.1258 20.0059 9.99906C20.0059 9.87231 19.9809 9.74681 19.9324 9.62974C19.8838 9.51267 19.8126 9.40633 19.7229 9.3168Z" fill="#708090"/>
</svg>
