<svg width="40" height="40" viewBox="0 0 40 40" fill="none" xmlns="http://www.w3.org/2000/svg">
<path d="M29.9997 11.9329C29.8947 11.9162 29.7877 11.9162 29.6827 11.9329C28.5546 11.8914 27.488 11.4087 26.7121 10.5888C25.9362 9.76889 25.5132 8.67719 25.5339 7.54856C25.5547 6.41993 26.0176 5.34453 26.8231 4.55371C27.6287 3.76289 28.7124 3.31982 29.8412 3.31982C30.97 3.31982 32.0538 3.76289 32.8593 4.55371C33.6648 5.34453 34.1277 6.41993 34.1485 7.54856C34.1692 8.67719 33.7462 9.76889 32.9703 10.5888C32.1945 11.4087 31.1278 11.8914 29.9997 11.9329Z" stroke="#545AE8" stroke-width="1.5" stroke-linecap="round" stroke-linejoin="round"/>
<path d="M28.2824 24.0669C30.5445 24.4847 32.8813 24.0577 34.8494 22.8669C37.1994 21.2999 37.1994 18.7339 34.8494 17.1669C32.8634 15.9745 30.5087 15.5532 28.2324 15.9829" stroke="#545AE8" stroke-width="1.5" stroke-linecap="round" stroke-linejoin="round"/>
<path d="M9.95028 11.9329C10.0553 11.9162 10.1623 11.9162 10.2673 11.9329C11.3953 11.8914 12.462 11.4087 13.2379 10.5888C14.0138 9.76889 14.4368 8.67719 14.4161 7.54856C14.3953 6.41993 13.9324 5.34453 13.1268 4.55371C12.3213 3.76289 11.2376 3.31982 10.1088 3.31982C8.97996 3.31982 7.89623 3.76289 7.09072 4.55371C6.28521 5.34453 5.82228 6.41993 5.80151 7.54856C5.78074 8.67719 6.20379 9.76889 6.97966 10.5888C7.75553 11.4087 8.82222 11.8914 9.95028 11.9329Z" stroke="#545AE8" stroke-width="1.5" stroke-linecap="round" stroke-linejoin="round"/>
<path d="M11.6674 24.0669C9.4053 24.4847 7.06854 24.0577 5.10039 22.8669C2.75039 21.2999 2.75039 18.7339 5.10039 17.1669C7.0864 15.9745 9.44116 15.5532 11.7174 15.9829" stroke="#545AE8" stroke-width="1.5" stroke-linecap="round" stroke-linejoin="round"/>
<path d="M20.0007 24.3831C19.8957 24.3664 19.7887 24.3664 19.6837 24.3831C18.5556 24.3416 17.4889 23.8589 16.7131 23.039C15.9372 22.2191 15.5141 21.1274 15.5349 19.9988C15.5557 18.8701 16.0186 17.7947 16.8241 17.0039C17.6296 16.2131 18.7134 15.77 19.8422 15.77C20.971 15.77 22.0547 16.2131 22.8602 17.0039C23.6658 17.7947 24.1287 18.8701 24.1495 19.9988C24.1702 21.1274 23.7472 22.2191 22.9713 23.039C22.1954 23.8589 21.1287 24.3416 20.0007 24.3831Z" stroke="#545AE8" stroke-width="1.5" stroke-linecap="round" stroke-linejoin="round"/>
<path d="M15.1492 29.6331C12.7992 31.2001 12.7992 33.7661 15.1492 35.3331C16.6156 36.2084 18.2915 36.6706 19.9992 36.6706C21.707 36.6706 23.3829 36.2084 24.8492 35.3331C27.1992 33.7661 27.1992 31.2001 24.8492 29.6331C23.3801 28.7657 21.7053 28.3081 19.9992 28.3081C18.2932 28.3081 16.6183 28.7657 15.1492 29.6331Z" stroke="#545AE8" stroke-width="1.5" stroke-linecap="round" stroke-linejoin="round"/>
</svg>
