<svg width="71" height="60" viewBox="0 0 71 60" fill="none" xmlns="http://www.w3.org/2000/svg">
<path d="M1 1.78589C12.819 20.0279 21.394 39.4349 33.212 57.6759C35.489 51.0609 41.112 42.8069 44.236 36.6379" stroke="#DDDDDD" stroke-width="2" stroke-miterlimit="10"/>
<path d="M2.13281 2.14209C19.8968 18.0761 37.7058 31.7421 56.7548 45.7271C56.5478 40.5651 54.9449 34.3661 54.0479 29.2831" stroke="#DDDDDD" stroke-width="2" stroke-miterlimit="10"/>
<path d="M1.05078 1C14.6348 7.31 25.5368 12.264 37.6208 19.355C43.3778 22.732 47.8698 25.502 53.5208 29.099" stroke="#DDDDDD" stroke-width="2" stroke-miterlimit="10"/>
<path d="M54.2012 29.6301C58.6162 25.4031 64.5881 22.8711 69.8561 20.0581" stroke="#DDDDDD" stroke-width="2" stroke-miterlimit="10"/>
<path d="M1.92383 1.00293C24.8859 5.92922 47.5276 12.2455 69.7238 19.9169" stroke="#DDDDDD" stroke-width="2" stroke-miterlimit="10"/>
</svg>
