<svg width="7" height="12" viewBox="0 0 7 12" fill="none" xmlns="http://www.w3.org/2000/svg">
<path d="M4.75683 6.11997L0.620826 1.98697C0.475002 1.84108 0.393085 1.64325 0.393085 1.43697C0.393085 1.2307 0.475002 1.03286 0.620826 0.886971C0.76825 0.741744 0.966886 0.660339 1.17383 0.660339C1.38077 0.660339 1.5794 0.741744 1.72683 0.886971L6.41283 5.56997C6.55443 5.71208 6.63583 5.90329 6.64011 6.10386C6.64439 6.30443 6.57123 6.49894 6.43583 6.64697L1.73083 11.361C1.6601 11.4399 1.57405 11.5036 1.47791 11.5482C1.38177 11.5928 1.27756 11.6174 1.17162 11.6205C1.06568 11.6235 0.960223 11.605 0.86168 11.566C0.763136 11.5269 0.673564 11.4683 0.598418 11.3935C0.523272 11.3188 0.464124 11.2295 0.424575 11.1312C0.385027 11.0329 0.365906 10.9275 0.368376 10.8216C0.370847 10.7156 0.394858 10.6113 0.438946 10.5149C0.483035 10.4185 0.546278 10.3321 0.624826 10.261L4.75683 6.11997Z" fill="white"/>
</svg>
