<svg width="49" height="43" viewBox="0 0 49 43" fill="none" xmlns="http://www.w3.org/2000/svg">
<path d="M45.813 37.18C46.4366 37.0446 47.014 36.7488 47.4883 36.3219C47.9625 35.8949 48.3172 35.3516 48.5171 34.7457C48.7171 34.1397 48.7555 33.492 48.6285 32.8667C48.5015 32.2413 48.2135 31.66 47.793 31.18C47.9077 30.8625 47.9662 30.5275 47.966 30.19C47.966 29.4084 47.6555 28.6588 47.1028 28.1062C46.5502 27.5535 45.8006 27.243 45.019 27.243C44.2374 27.243 43.4878 27.5535 42.9352 28.1062C42.3825 28.6588 42.072 29.4084 42.072 30.19C42.0718 30.5275 42.1303 30.8625 42.245 31.18C41.6588 31.8422 41.3345 32.6956 41.333 33.58C41.3314 34.4201 41.6175 35.2355 42.1436 35.8904C42.6698 36.5454 43.4043 37.0005 44.225 37.18V40.59H40.846V8.031L21.217 0V7.387L3.065 0V40.58H0V42.152H47.934V40.58H45.813V37.18ZM42.921 33.58C42.93 33.2766 43.005 32.9788 43.1407 32.7074C43.2765 32.4359 43.4697 32.1972 43.707 32.008L44.257 31.568L43.88 30.968C43.7491 30.7613 43.6761 30.5232 43.6686 30.2786C43.6612 30.034 43.7195 29.7919 43.8375 29.5776C43.9554 29.3632 44.1288 29.1845 44.3395 29.06C44.5501 28.9355 44.7903 28.8698 45.035 28.8698C45.2797 28.8698 45.5199 28.9355 45.7305 29.06C45.9412 29.1845 46.1146 29.3632 46.2325 29.5776C46.3505 29.7919 46.4088 30.034 46.4014 30.2786C46.3939 30.5232 46.3209 30.7613 46.19 30.968L45.813 31.568L46.347 32.008C46.6264 32.2331 46.8437 32.5258 46.9782 32.8584C47.1128 33.191 47.1601 33.5524 47.1157 33.9085C47.0714 34.2645 46.9368 34.6033 46.7248 34.8927C46.5127 35.1821 46.2303 35.4126 45.9042 35.5622C45.5781 35.7118 45.2192 35.7757 44.8615 35.7477C44.5038 35.7197 44.1592 35.6007 43.8604 35.4022C43.5615 35.2036 43.3184 34.932 43.154 34.6131C42.9896 34.2942 42.9094 33.9386 42.921 33.58ZM22.788 2.342L39.322 9.08V37.53H22.788V2.342ZM21.216 11.457H18.7V13.029H21.215V16.929H18.7V18.501H21.215V22.401H18.7V23.973H21.215V28.531H18.7V30.103H21.215V34.425H13.752V33.24H16.094V31.668H13.752V27.503H16.094V25.932H13.752V21.767H16.094V20.195H13.752V16.046H16.094V14.475H13.752V10.341H16.094V8.77H13.752V6.07L21.217 9.103L21.216 11.457ZM10.53 35.974V40.58H8.785V35.99L10.53 35.974ZM12.102 35.974H13.752V40.58H12.052L12.102 35.974ZM15.371 35.974H17.071V40.58H15.323L15.371 35.974ZM12.227 5.406V34.418H4.636V2.342L12.227 5.406ZM4.636 35.99H7.214V40.59H4.636V35.99ZM18.592 40.59V35.99H21.217V40.59H18.592ZM22.741 40.59V39.118H39.275V40.595L22.741 40.59Z" fill="#545AE8"/>
<path d="M6.23926 13.327H9.03926V14.899H6.23926V13.327Z" fill="#545AE8"/>
<path d="M6.23926 16.926H9.03926V18.498H6.23926V16.926Z" fill="#545AE8"/>
<path d="M6.23926 20.525H9.03926V22.097H6.23926V20.525Z" fill="#545AE8"/>
<path d="M6.23926 24.124H9.03926V25.696H6.23926V24.124Z" fill="#545AE8"/>
<path d="M6.23926 27.723H9.03926V29.295H6.23926V27.723Z" fill="#545AE8"/>
<path d="M33.6006 13.327H36.4006V14.899H33.6006V13.327Z" fill="#545AE8"/>
<path d="M33.6006 16.926H36.4006V18.498H33.6006V16.926Z" fill="#545AE8"/>
<path d="M33.6006 20.525H36.4006V22.097H33.6006V20.525Z" fill="#545AE8"/>
<path d="M33.6006 24.124H36.4006V25.696H33.6006V24.124Z" fill="#545AE8"/>
<path d="M33.6006 27.723H36.4006V29.295H33.6006V27.723Z" fill="#545AE8"/>
<path d="M33.6006 31.322H36.4006V32.894H33.6006V31.322Z" fill="#545AE8"/>
<path d="M25.6172 13.327H28.4172V14.899H25.6172V13.327Z" fill="#545AE8"/>
<path d="M25.6172 16.926H28.4172V18.498H25.6172V16.926Z" fill="#545AE8"/>
<path d="M25.6172 20.525H28.4172V22.097H25.6172V20.525Z" fill="#545AE8"/>
<path d="M25.6172 24.124H28.4172V25.696H25.6172V24.124Z" fill="#545AE8"/>
<path d="M25.6172 27.723H28.4172V29.295H25.6172V27.723Z" fill="#545AE8"/>
<path d="M25.6172 31.322H28.4172V32.894H25.6172V31.322Z" fill="#545AE8"/>
<path d="M6.23926 31.322H9.03926V32.894H6.23926V31.322Z" fill="#545AE8"/>
</svg>
