<svg width="64" height="46" viewBox="0 0 64 46" fill="none" xmlns="http://www.w3.org/2000/svg">
<path opacity="0.5" d="M14.875 0.905762C15.9981 0.905716 17.099 1.21844 18.0544 1.8089C19.0097 2.39935 19.7818 3.2442 20.284 4.24876L27.627 18.9348V43.6768C27.627 44.2868 27.3847 44.8718 26.9533 45.3031C26.522 45.7344 25.937 45.9768 25.327 45.9768H2.88398C2.27399 45.9768 1.68897 45.7344 1.25764 45.3031C0.826305 44.8718 0.583984 44.2868 0.583984 43.6768V21.2338C0.583984 20.6238 0.826305 20.0387 1.25764 19.6074C1.68897 19.1761 2.27399 18.9338 2.88398 18.9338H14.105L9.46598 9.65676C9.00507 8.73481 8.78748 7.71035 8.83386 6.68065C8.88025 5.65095 9.18907 4.65019 9.731 3.77342C10.2729 2.89664 11.03 2.17294 11.9303 1.67105C12.8306 1.16915 13.8442 0.905719 14.875 0.905762ZM50.931 0.905762C52.0539 0.905901 53.1546 1.21872 54.1098 1.80916C55.065 2.39961 55.8369 3.24436 56.339 4.24876L63.684 18.9338V43.6768C63.684 44.2868 63.4417 44.8718 63.0103 45.3031C62.579 45.7344 61.994 45.9768 61.384 45.9768H38.94C38.33 45.9768 37.745 45.7344 37.3136 45.3031C36.8823 44.8718 36.64 44.2868 36.64 43.6768V21.2338C36.64 20.6238 36.8823 20.0387 37.3136 19.6074C37.745 19.1761 38.33 18.9338 38.94 18.9338H50.161L45.522 9.65676C45.0611 8.73481 44.8435 7.71035 44.8899 6.68065C44.9362 5.65095 45.2451 4.65019 45.787 3.77342C46.3289 2.89664 47.086 2.17294 47.9863 1.67105C48.8866 1.16915 49.9002 0.905719 50.931 0.905762Z" fill="#545AE8"/>
</svg>
