<svg width="40" height="40" viewBox="0 0 40 40" fill="none" xmlns="http://www.w3.org/2000/svg">
<path d="M12.1004 3.3331H27.8844C28.859 3.31911 29.8334 3.36922 30.8014 3.4831C35.4174 4.0001 36.6674 6.1661 36.6674 12.1001V22.6331C36.6674 28.5661 35.4174 30.7331 30.8004 31.2501C29.8324 31.3644 28.858 31.4146 27.8834 31.4001H12.1004C11.1258 31.4141 10.1514 31.364 9.18338 31.2501C4.56738 30.7331 3.31738 28.5661 3.31738 22.6331V12.1001C3.31738 6.1661 4.56738 4.0001 9.18438 3.4831C10.152 3.36926 11.1261 3.31915 12.1004 3.3331Z" stroke="#545AE8" stroke-width="1.5" stroke-linecap="round" stroke-linejoin="round"/>
<path d="M22.6348 13.8662H28.7678" stroke="#545AE8" stroke-width="1.5" stroke-linecap="round" stroke-linejoin="round"/>
<path d="M11.2344 23.5161H28.7844" stroke="#545AE8" stroke-width="1.5" stroke-linecap="round" stroke-linejoin="round"/>
<path d="M11.667 36.667H28.334" stroke="#545AE8" stroke-width="1.5" stroke-linecap="round" stroke-linejoin="round"/>
<path d="M11.9922 13.833H12.0062" stroke="#545AE8" stroke-width="2" stroke-linecap="round" stroke-linejoin="round"/>
<path d="M17.4912 13.833H17.5052" stroke="#545AE8" stroke-width="2" stroke-linecap="round" stroke-linejoin="round"/>
</svg>
