<svg width="24" height="24" viewBox="0 0 24 24" fill="none" xmlns="http://www.w3.org/2000/svg">
<path d="M21.6031 7.64547C21.4555 7.56029 21.2881 7.51544 21.1178 7.51544C20.9474 7.51544 20.78 7.56029 20.6325 7.64547L17.2063 9.3343C17.1786 8.5807 16.8597 7.86723 16.3166 7.34405C15.7735 6.82087 15.0486 6.52879 14.2945 6.5293H5.55923C4.78698 6.5293 4.04636 6.83607 3.5003 7.38213C2.95424 7.9282 2.64746 8.66881 2.64746 9.44106V15.2646C2.64746 16.0368 2.95424 16.7775 3.5003 17.3235C4.04636 17.8696 4.78698 18.1764 5.55923 18.1764H14.2945C15.0486 18.1769 15.7735 17.8848 16.3166 17.3616C16.8597 16.8384 17.1786 16.1249 17.2063 15.3714L20.6616 17.099C20.7939 17.1668 20.94 17.2034 21.0886 17.2058C21.2704 17.2064 21.4486 17.1559 21.6031 17.0602C21.7429 16.9728 21.8582 16.8511 21.938 16.7068C22.0178 16.5624 22.0596 16.4001 22.0592 16.2352V8.47047C22.0596 8.30553 22.0178 8.14322 21.938 7.99887C21.8582 7.85452 21.7429 7.7329 21.6031 7.64547ZM15.2651 15.2646C15.2651 15.522 15.1628 15.7689 14.9808 15.9509C14.7988 16.1329 14.5519 16.2352 14.2945 16.2352H5.55923C5.30181 16.2352 5.05494 16.1329 4.87292 15.9509C4.6909 15.7689 4.58864 15.522 4.58864 15.2646V9.44106C4.58864 9.18365 4.6909 8.93677 4.87292 8.75475C5.05494 8.57273 5.30181 8.47047 5.55923 8.47047H14.2945C14.5519 8.47047 14.7988 8.57273 14.9808 8.75475C15.1628 8.93677 15.2651 9.18365 15.2651 9.44106V15.2646ZM20.118 14.6628L17.2063 13.2069V11.4987L20.118 10.0428V14.6628Z" fill="#708090"/>
<circle cx="4" cy="9" r="4" fill="#DC3545"/>
</svg>
